<?xml version="1.0" standalone="no"?>
<!DOCTYPE svg PUBLIC "-//W3C//DTD SVG 20010904//EN"
 "http://www.w3.org/TR/2001/REC-SVG-20010904/DTD/svg10.dtd">
<svg version="1.0" xmlns="http://www.w3.org/2000/svg"
 width="558.000000pt" height="558.000000pt" viewBox="0 0 558.000000 558.000000"
 preserveAspectRatio="xMidYMid meet">
<metadata>
Created by potrace 1.11, written by Peter Selinger 2001-2013
</metadata>
<g transform="translate(0.000000,558.000000) scale(0.100000,-0.100000)"
fill="#000000" stroke="none">
<path d="M3342 4329 c-120 -57 -308 -184 -370 -249 -48 -50 -85 -58 -114 -27
-16 18 -17 18 -28 0 -10 -16 -11 -16 -6 0 6 19 -10 24 -17 5 -4 -9 -6 -7 -6 3
-2 26 -44 16 -52 -12 -4 -14 -7 -17 -8 -7 -1 21 -41 12 -41 -9 0 -8 -4 -11
-10 -8 -5 3 -10 -1 -10 -9 0 -27 -14 -17 -48 34 -46 67 -185 214 -236 249 -45
32 -108 55 -174 65 -51 8 -49 -9 2 -18 59 -11 169 -73 233 -131 59 -53 183
-198 183 -213 0 -4 -19 -15 -41 -26 -47 -22 -79 -67 -79 -113 0 -18 -5 -33
-11 -33 -7 0 -9 -9 -6 -21 5 -17 3 -18 -11 -7 -14 11 -15 10 -8 -7 4 -11 4
-16 0 -12 -8 8 -40 -26 -60 -65 -20 -38 -32 -35 -39 10 -4 20 -14 54 -23 75
-9 22 -19 58 -23 80 l-6 42 -2 -40 c0 -22 8 -60 19 -84 11 -24 20 -57 19 -75
-1 -31 -1 -31 -13 9 l-13 40 2 -40 c0 -22 7 -51 14 -64 8 -15 9 -27 3 -33 -14
-14 -23 4 -25 53 -1 34 -3 38 -13 24 -11 -15 -14 -12 -23 22 -13 45 -14 56 -3
50 4 -3 7 26 7 64 0 58 -2 66 -12 52 -7 -9 -13 -23 -13 -30 0 -23 -15 -14 -46
26 -28 39 -65 62 -152 96 -23 10 -52 30 -63 46 -13 19 -36 34 -64 41 -32 9
-47 20 -60 45 -10 18 -22 33 -27 33 -5 0 -16 16 -24 35 -8 20 -19 33 -25 29
-6 -3 -20 2 -31 13 -12 10 -18 12 -14 6 4 -8 1 -13 -8 -13 -9 0 -16 8 -16 19
0 10 -11 26 -25 35 -31 20 -46 21 -39 1 8 -20 -15 -19 -38 2 -10 9 -18 11 -18
6 0 -6 21 -24 48 -39 26 -15 49 -30 52 -34 3 -4 20 -11 38 -15 17 -3 32 -12
32 -19 0 -21 280 -305 328 -333 25 -15 61 -29 81 -33 21 -4 35 -11 33 -18 -1
-7 9 -32 22 -56 30 -53 78 -186 68 -187 -4 0 2 -4 13 -9 17 -7 17 -9 3 -9 -19
-1 -20 -21 -3 -33 6 -5 4 -12 -5 -18 -12 -8 -12 -10 5 -10 19 -1 19 -2 -3 -20
-14 -11 -20 -24 -16 -31 11 -19 -63 -5 -131 24 -133 56 -350 153 -520 234
-196 93 -285 126 -385 142 -36 5 -99 20 -140 31 -66 19 -96 21 -245 18 -231
-5 -266 -22 -280 -133 -6 -45 -3 -55 27 -100 47 -71 100 -121 204 -193 50 -34
112 -81 138 -105 45 -43 46 -44 44 -103 -1 -32 2 -69 6 -81 9 -27 103 -124
153 -157 130 -86 460 -128 706 -90 37 6 38 6 26 -14 -7 -11 -21 -24 -30 -29
-35 -16 -229 -208 -238 -235 -7 -20 -17 -28 -33 -28 -18 0 -20 -2 -8 -10 8 -5
12 -12 9 -15 -9 -9 -39 6 -39 19 0 8 -13 10 -37 8 l-38 -5 35 -12 c34 -11 34
-12 12 -24 -14 -7 -22 -8 -22 -1 0 5 -7 10 -15 10 -8 0 -15 5 -15 10 0 6 -10
10 -22 9 -13 0 -17 -3 -10 -6 6 -2 12 -12 12 -21 0 -13 -2 -14 -9 -4 -4 8 -11
13 -15 13 -3 -1 -9 -1 -13 0 -5 1 -17 1 -28 0 -11 -1 -39 5 -62 13 l-41 14 -5
-28 c-5 -20 -16 -32 -44 -43 -45 -19 -17 -23 37 -6 65 21 130 27 130 12 0 -15
26 -18 35 -3 4 6 15 8 25 5 9 -3 30 -1 45 5 21 8 30 8 35 -1 5 -7 19 -5 46 9
29 14 44 17 60 10 16 -7 32 -5 60 8 52 25 187 162 213 218 20 40 21 48 8 78
-18 44 -12 62 23 75 28 10 30 9 30 -10 0 -18 2 -19 10 -7 8 13 10 12 10 -2 0
-10 -4 -18 -10 -18 -5 0 -10 -5 -10 -11 0 -5 5 -7 10 -4 6 3 10 -2 10 -12 1
-17 1 -17 11 0 6 9 15 14 21 11 7 -5 9 0 5 15 -5 22 23 63 41 59 4 -1 22 23
40 52 17 30 39 58 48 63 11 6 38 -2 90 -29 67 -34 73 -39 67 -62 -4 -18 -3
-23 6 -17 9 5 12 0 9 -16 -3 -20 -12 -25 -67 -36 -75 -15 -97 -29 -31 -19 42
6 44 6 25 -8 -11 -9 -16 -16 -12 -16 5 0 -13 -16 -40 -36 -26 -20 -52 -41 -58
-47 -15 -15 14 1 53 30 18 14 36 23 38 20 6 -6 -80 -77 -93 -77 -6 0 -16 -7
-23 -15 -7 -8 -16 -13 -20 -10 -5 3 -12 0 -16 -6 -8 -13 -24 7 -24 31 0 13 2
13 10 0 6 -10 9 -6 8 18 -1 17 5 39 13 48 13 16 12 16 -7 6 -38 -20 -76 -73
-71 -99 3 -16 -2 -28 -16 -38 -12 -8 -22 -21 -23 -29 -1 -8 -9 -30 -18 -47
-20 -40 -20 -45 1 -28 15 13 15 12 5 -8 -8 -14 -9 -24 -2 -28 13 -8 13 -35 -1
-35 -5 0 -7 6 -3 13 6 9 5 9 -7 0 -9 -7 -15 -34 -17 -75 l-2 -63 17 30 c9 17
16 35 15 42 -1 6 2 14 8 18 6 4 7 -1 3 -12 -6 -16 -5 -17 12 -3 17 14 18 13
11 -5 -5 -11 -10 -29 -13 -40 -4 -16 -3 -17 6 -5 6 8 11 10 11 4 0 -6 -7 -17
-15 -24 -15 -12 -11 -35 5 -25 4 3 11 -7 15 -23 13 -45 3 -122 -15 -122 -5 0
-6 7 -3 17 5 12 3 14 -7 8 -10 -6 -12 3 -8 44 4 35 2 50 -6 48 -6 -2 -10 -13
-9 -23 2 -10 -2 -38 -7 -62 -6 -24 -7 -48 -3 -55 4 -7 6 -23 4 -36 -2 -16 1
-21 9 -16 6 4 2 -11 -9 -33 -11 -22 -17 -42 -14 -46 3 -3 -2 -15 -12 -26 -24
-27 -7 -26 22 2 l23 21 0 -20 c0 -12 6 -24 13 -26 7 -4 6 -6 -4 -6 -9 -1 -19
-8 -23 -16 -3 -8 -11 -15 -17 -15 -8 0 -8 4 1 15 7 9 11 17 9 19 -2 2 -13 -8
-23 -22 -11 -14 -14 -22 -8 -18 7 4 12 1 12 -8 0 -8 -8 -20 -17 -25 -12 -7
-14 -10 -4 -11 11 0 11 -3 1 -16 -8 -8 -9 -14 -4 -12 9 3 15 -6 13 -17 -1 -3
-3 -9 -4 -15 -1 -5 -4 -11 -5 -12 -1 -2 -4 -20 -5 -41 l-3 -38 24 22 c12 12
26 35 29 51 4 16 9 27 12 24 9 -9 10 -71 1 -83 -5 -7 -7 -17 -3 -23 4 -6 1 -9
-7 -8 -8 2 -12 -4 -10 -15 4 -21 -32 -82 -56 -97 -16 -9 -16 -11 0 -23 19 -15
14 -48 -12 -97 -10 -18 -9 -24 0 -30 10 -6 6 -20 -14 -55 -30 -55 -30 -55 -13
-55 9 0 12 -9 9 -28 -5 -40 22 -100 53 -114 33 -15 78 0 84 27 3 16 1 17 -12
7 -13 -11 -19 -9 -36 9 -12 13 -21 26 -21 31 0 16 19 8 34 -14 l16 -22 0 26
c0 18 -11 35 -32 53 -30 23 -31 27 -15 36 19 11 23 44 7 54 -17 10 -11 43 9
57 14 10 17 18 10 28 -5 8 -9 29 -9 46 0 23 6 34 24 42 13 6 26 22 28 36 3 14
1 23 -3 20 -5 -3 -9 -14 -9 -24 0 -16 -35 -38 -45 -28 -4 4 25 39 47 56 14 11
20 9 43 -15 18 -19 24 -22 19 -9 -7 18 -6 18 22 0 20 -14 26 -15 19 -4 -11 18
-12 20 -27 95 -9 50 -13 56 -18 35 -7 -23 -8 -24 -14 -5 -4 11 -12 31 -17 44
-9 21 -8 23 5 11 15 -11 15 -9 0 25 -8 20 -13 39 -11 41 2 3 10 -9 17 -25 7
-17 18 -35 25 -41 11 -9 13 -2 11 32 -2 51 11 88 30 81 13 -5 12 23 -3 72 -5
18 -4 19 12 5 17 -14 17 -14 1 18 -9 18 -15 39 -13 45 2 7 10 0 17 -15 7 -15
17 -25 21 -22 5 3 4 14 -1 25 -6 10 -8 19 -6 19 3 0 -3 20 -14 45 -11 25 -17
45 -13 45 3 0 -1 8 -8 18 -13 15 -12 16 4 3 20 -16 37 -7 19 11 -14 14 -16 32
-3 24 5 -4 7 3 4 14 -3 11 -10 17 -16 13 -6 -4 -7 -1 -2 7 10 17 11 57 1 87
-4 12 -3 39 3 58 10 39 5 69 -10 59 -6 -3 -7 5 -4 19 4 14 2 28 -4 31 -14 9
-14 26 0 26 5 0 7 -5 3 -12 -4 -7 -3 -8 4 -4 17 10 26 75 14 102 -10 21 -8 25
16 38 15 9 47 34 72 56 49 45 95 76 73 48 -7 -8 -11 -17 -8 -20 3 -3 -14 -27
-37 -54 -23 -27 -30 -38 -15 -25 20 18 27 21 27 9 0 -8 -9 -23 -20 -33 -13
-12 -18 -26 -15 -44 6 -36 -4 -64 -21 -57 -12 4 -11 0 2 -25 10 -20 11 -28 4
-24 -8 5 -11 3 -8 -6 3 -8 1 -22 -4 -31 -7 -14 -5 -16 8 -11 13 5 12 -1 -6
-37 -12 -23 -17 -39 -11 -35 16 9 13 -8 -4 -31 -19 -25 -19 -40 0 -24 12 10
15 9 16 -6 0 -11 2 -30 4 -44 1 -14 -2 -31 -7 -37 -7 -9 -7 -13 0 -13 6 0 9
-7 6 -15 -4 -8 -2 -21 4 -28 5 -6 13 -43 17 -81 4 -37 10 -64 14 -60 3 5 12
10 19 12 13 2 16 -14 13 -67 -2 -24 1 -31 10 -26 9 6 10 1 6 -17 -5 -19 -2
-28 9 -32 10 -4 14 -14 11 -26 -3 -11 -1 -18 3 -15 5 3 11 -1 14 -7 4 -7 4 -3
2 10 -2 12 0 20 5 16 5 -3 9 -20 9 -37 0 -24 3 -28 10 -17 5 8 10 11 10 5 0
-5 5 -3 10 5 8 12 10 10 10 -8 0 -13 4 -21 9 -18 5 3 11 -1 15 -9 3 -8 1 -15
-4 -15 -5 0 -7 -7 -4 -15 3 -8 15 -13 27 -12 13 1 25 -7 33 -21 8 -16 13 -19
16 -10 3 8 11 2 22 -17 16 -28 17 -28 12 -5 -4 22 -3 23 7 7 7 -10 18 -26 25
-35 11 -15 11 -15 5 2 -4 12 -2 17 3 13 7 -4 9 6 6 25 -3 21 -7 26 -13 17 -10
-15 -11 -11 -13 44 -2 25 0 26 11 11 9 -12 13 -14 13 -4 0 9 6 8 20 -5 13 -12
20 -14 20 -6 0 7 -23 36 -52 64 -28 29 -48 46 -44 40 10 -17 -2 -16 -19 1 -8
8 -11 23 -8 36 4 16 3 21 -5 16 -7 -4 -12 -4 -13 1 0 4 -2 19 -5 33 -4 24 -3
25 12 5 16 -20 16 -20 9 3 -3 12 -2 22 3 22 6 0 13 -12 16 -26 4 -15 10 -24
13 -21 3 3 1 20 -5 36 -9 25 -8 31 4 31 8 0 14 10 14 26 0 23 1 24 16 10 8 -9
19 -16 23 -16 5 0 15 -17 23 -37 l14 -38 2 34 c1 43 19 62 36 39 11 -15 13
-15 23 0 8 14 13 15 25 5 8 -7 18 -10 22 -6 11 11 50 9 59 -2 4 -6 11 -4 17 5
5 8 10 11 11 5 0 -5 4 -1 9 10 6 15 9 16 9 4 1 -18 26 -18 56 -2 15 9 25 8 39
-3 14 -10 23 -11 33 -3 7 6 13 8 13 3 0 -5 5 -2 10 6 8 11 9 7 5 -15 -3 -16
-3 -24 1 -18 4 8 15 2 35 -19 33 -37 34 -36 14 22 -16 45 -20 79 -5 45 l9 -20
1 20 c1 13 8 4 19 -25 10 -24 23 -46 30 -48 14 -5 14 4 0 29 -9 18 -8 19 9 10
11 -6 22 -7 26 -4 3 3 6 -11 7 -33 l1 -39 13 45 c10 37 14 42 20 26 6 -13 4
-21 -3 -24 -7 -2 -12 -13 -12 -24 0 -11 -8 -36 -17 -56 l-18 -37 -6 45 -6 45
-1 -57 c-1 -31 -7 -60 -12 -63 -7 -4 -9 2 -7 17 2 12 2 17 0 11 -4 -12 -16
-17 -34 -15 -4 1 -10 -13 -13 -31 -6 -28 -8 -30 -17 -14 -10 16 -11 16 -28 -4
-21 -26 -56 -35 -47 -13 3 9 1 12 -4 9 -6 -3 -10 -12 -10 -20 0 -7 -7 -15 -15
-19 -12 -4 -14 0 -10 22 l5 27 -11 -27 c-6 -16 -14 -28 -19 -28 -10 0 -32 -61
-25 -68 3 -3 5 0 5 7 0 7 5 9 11 6 6 -4 13 2 16 13 4 18 9 19 31 11 18 -7 27
-6 32 2 6 8 9 8 14 0 4 -6 12 -9 17 -6 10 7 1 -52 -12 -75 -5 -9 -7 -2 -4 20
l5 35 -12 -32 c-18 -44 -32 -55 -24 -18 5 25 4 27 -5 12 -6 -10 -9 -27 -6 -37
3 -12 0 -17 -8 -14 -10 4 -11 14 -4 37 9 33 4 53 -6 21 -4 -10 -13 -34 -21
-52 -19 -43 -18 -58 1 -42 13 11 14 10 9 -5 -6 -15 -4 -16 12 -7 29 16 74 61
74 74 0 6 3 9 6 6 3 -4 -2 -21 -11 -38 l-17 -33 32 23 c17 12 35 32 40 44 5
11 9 15 9 8 1 -18 31 11 32 30 0 7 4 4 9 -7 8 -19 9 -19 9 2 1 25 17 39 24 21
3 -8 6 -5 6 5 1 10 8 25 16 33 13 14 16 13 25 -10 5 -14 12 -26 15 -26 2 0 0
12 -5 26 -6 14 -10 32 -10 41 0 13 3 13 15 3 13 -10 15 -9 15 8 0 25 16 38 24
20 3 -9 5 -8 4 2 -3 22 21 60 37 60 9 0 12 6 8 16 -5 13 -2 15 15 9 19 -5 22
-2 22 18 0 14 7 30 15 37 11 9 14 24 10 49 -5 34 -5 34 6 11 12 -24 12 -24 19
20 4 25 5 49 3 53 -3 5 5 4 17 -3 l23 -12 -21 30 c-23 31 -28 47 -13 38 11 -7
32 40 25 59 -4 8 -1 15 5 15 17 0 13 41 -6 56 -17 13 -17 14 0 8 20 -7 23 15
5 35 -10 10 -10 12 -1 7 13 -7 11 43 -3 66 -5 7 -9 18 -10 23 -1 6 -5 19 -10
30 -6 16 -3 15 14 -5 12 -14 22 -20 21 -15 -3 23 2 36 11 30 6 -4 6 5 -1 22
-10 25 -18 67 -23 116 0 10 -8 22 -16 28 -11 8 -12 12 -3 15 14 6 7 31 -15 57
-8 9 -12 20 -9 24 4 3 2 12 -4 20 -6 7 -8 13 -3 13 4 0 35 -28 68 -63 34 -35
70 -68 80 -74 14 -8 17 -16 11 -29 -8 -20 -11 -45 -18 -185 -3 -47 -9 -95 -14
-105 -6 -10 -13 -43 -16 -73 -4 -29 -10 -58 -15 -65 -5 -6 -10 -29 -11 -51 -1
-22 -10 -48 -19 -59 -9 -11 -11 -16 -4 -12 10 6 11 1 6 -20 -5 -21 -4 -25 6
-19 10 6 12 3 8 -13 -4 -14 -2 -20 4 -16 6 4 8 -2 4 -15 -3 -11 -9 -30 -12
-42 -3 -12 1 -28 9 -37 19 -21 17 -171 -3 -217 -7 -16 -14 -32 -14 -35 -1 -3
-5 -11 -9 -17 -6 -9 -3 -11 10 -6 10 3 23 10 29 14 6 5 14 6 17 2 4 -3 13 -1
21 6 11 9 20 4 46 -29 33 -41 33 -47 -1 -30 -10 6 -19 19 -19 30 0 10 -4 21
-8 24 -5 3 -6 -9 -4 -26 3 -19 12 -32 23 -35 22 -6 26 -51 8 -84 -8 -16 -7
-25 4 -37 9 -9 17 -31 20 -49 3 -17 8 -37 12 -42 3 -6 1 -11 -4 -11 -10 0 -16
22 -12 44 1 5 -5 4 -13 -4 -20 -16 -20 -25 -1 -43 13 -13 10 -18 -20 -42 -19
-14 -35 -35 -35 -46 0 -18 1 -18 22 3 27 27 39 6 12 -23 -20 -22 -40 -25 -47
-6 -4 8 -6 7 -6 -4 -1 -25 21 -39 61 -39 32 0 41 5 58 33 11 17 20 46 20 64 0
18 7 36 15 41 14 7 13 13 -4 52 -13 30 -16 47 -9 51 8 5 7 16 -1 39 -15 43
-14 87 2 93 9 4 9 8 0 23 -7 11 -20 31 -28 46 -14 25 -14 27 1 21 13 -5 12 0
-6 24 -12 17 -20 37 -18 44 3 9 10 3 19 -15 8 -16 22 -30 31 -32 16 -2 16 0 2
28 -10 20 -11 28 -3 23 8 -6 10 -4 4 5 -4 7 -9 23 -11 34 -2 12 -5 30 -8 41
-2 11 -5 23 -5 28 -1 4 -8 7 -16 7 -8 0 -15 4 -15 9 0 5 15 5 35 1 20 -5 33
-4 29 1 -3 5 0 9 7 9 8 0 6 6 -4 18 -10 10 -19 32 -21 48 -2 16 -7 38 -12 49
-7 20 -7 20 14 1 27 -23 28 -15 5 21 -10 15 -12 24 -5 20 16 -11 15 -2 -3 32
-11 22 -12 37 -4 64 8 28 6 43 -5 64 l-15 28 -1 -25 c0 -21 -2 -22 -10 -8 -17
28 1 138 22 138 4 0 3 11 -2 25 -7 20 -6 25 5 25 11 0 12 5 5 25 -7 19 -6 23
5 18 19 -7 21 -119 3 -125 -7 -3 -9 -14 -3 -34 l8 -29 8 35 c4 19 14 54 23 78
12 31 15 67 12 135 -5 111 -8 125 -39 200 -23 54 -99 147 -120 147 -5 0 5 -11
21 -25 26 -22 53 -93 30 -79 -5 3 -6 -7 -2 -23 l6 -28 -27 30 c-24 28 -25 28
-15 5 l11 -25 -17 23 c-9 12 -22 22 -29 22 -12 0 -85 74 -85 86 0 4 21 -10 48
-31 l47 -37 -53 51 c-29 28 -47 51 -40 51 7 1 1 8 -14 16 -40 21 -34 27 8 9
41 -17 58 -19 50 -6 -3 5 -18 12 -33 15 -100 24 -141 57 -106 85 14 11 14 12
2 8 -12 -4 -15 1 -13 21 1 15 7 28 11 29 5 2 32 19 61 37 l51 34 39 -43 c22
-25 43 -41 47 -37 3 4 6 2 4 -3 -5 -23 29 -75 50 -75 6 0 11 -5 11 -11 0 -5 5
-7 10 -4 6 3 10 11 10 16 0 6 -5 7 -12 3 -8 -5 -9 -2 -5 10 4 10 2 26 -4 37
-9 18 -8 19 11 7 11 -7 18 -18 16 -25 -3 -7 4 -10 19 -7 14 2 25 -2 29 -11 3
-8 13 -15 23 -15 15 0 16 -2 3 -10 -12 -8 -12 -10 -1 -10 11 0 11 -3 1 -15
-15 -18 -46 -1 -55 30 -6 19 -6 19 -15 -3 -11 -27 10 -64 47 -81 19 -9 21 -8
16 7 -4 11 -3 14 4 7 5 -5 18 -32 28 -60 13 -38 38 -70 101 -131 95 -92 135
-117 172 -103 18 7 30 4 52 -11 32 -23 47 -25 52 -8 3 8 15 5 36 -11 26 -18
32 -19 32 -7 0 19 21 21 38 4 10 -10 14 -10 21 0 5 9 26 10 85 4 79 -9 115 -1
124 26 3 11 0 12 -15 3 -24 -12 -61 9 -48 28 5 8 -4 7 -23 -3 -43 -22 -119
-21 -125 2 -4 16 -5 16 -6 0 0 -10 -6 -18 -12 -18 -5 0 -8 4 -5 8 2 4 -21 9
-52 10 -31 1 -59 7 -60 13 -2 5 -18 7 -37 3 -29 -5 -35 -2 -53 28 -21 33 -90
100 -207 203 -32 27 -52 51 -46 53 8 3 6 9 -6 19 -16 13 -14 14 22 9 248 -35
563 2 686 80 47 30 141 119 157 151 7 12 12 51 12 86 0 64 0 65 48 108 26 25
77 66 115 93 71 50 89 69 35 36 -17 -10 -35 -17 -40 -14 -4 3 -8 -2 -8 -11 0
-26 -93 -50 -102 -26 -1 5 -14 3 -28 -5 -14 -9 -17 -13 -7 -10 23 7 78 -4 71
-15 -3 -5 -16 -6 -30 -3 -23 6 -29 -1 -25 -33 1 -6 -4 -15 -10 -19 -8 -5 -10
-2 -7 8 4 8 2 21 -3 29 -6 10 -9 8 -10 -11 -1 -14 -1 -31 0 -37 1 -7 -2 -13
-6 -13 -5 0 -10 12 -11 27 -4 46 -12 38 -13 -13 -1 -39 -3 -44 -9 -24 -8 25
-8 25 -10 -5 -2 -30 -2 -30 -10 -5 -8 24 -8 23 -9 -7 -1 -18 -5 -33 -11 -33
-5 0 -9 3 -9 8 1 4 1 16 0 27 l-2 20 -9 -20 c-5 -11 -11 -28 -14 -37 -5 -16
-11 -15 -69 11 -82 37 -145 49 -282 54 -60 2 -87 2 -60 -2 47 -6 48 -6 20 -14
-42 -11 -196 -69 -192 -73 2 -2 54 15 117 37 63 22 125 38 139 36 27 -3 22 -7
-25 -22 -9 -3 -14 -8 -11 -11 3 -4 24 3 47 15 42 22 65 27 56 13 -3 -5 9 -7
27 -5 l32 4 -37 -21 c-20 -11 -40 -25 -44 -31 -5 -8 -1 -8 14 0 24 13 72 15
72 3 0 -5 14 -7 30 -4 47 7 27 15 -50 21 -10 1 -9 5 6 15 23 16 68 10 57 -7
-3 -6 -1 -7 6 -3 12 8 81 -13 81 -24 0 -4 -12 -6 -27 -5 -20 2 -21 1 -5 -2 13
-3 20 -9 16 -15 -4 -7 -2 -8 4 -4 14 8 92 -13 92 -26 0 -11 -23 -6 -32 7 -5 6
-8 5 -8 -4 0 -9 -4 -10 -12 -3 -20 15 -102 30 -123 21 -16 -6 -12 -8 14 -8
l34 -1 -19 -22 c-19 -23 -19 -23 2 -5 11 9 29 17 39 17 17 0 17 -1 -1 -22 -19
-23 -19 -23 2 -5 23 19 44 22 44 6 0 -5 5 -7 12 -3 8 5 9 2 5 -10 -4 -9 -3
-15 2 -11 15 9 41 -6 41 -24 -1 -14 -2 -14 -14 1 -12 17 -14 17 -30 -1 -12
-13 -15 -27 -11 -40 4 -12 2 -21 -4 -21 -6 0 -11 8 -12 18 0 10 -3 12 -6 5 -3
-9 -15 -4 -38 14 -28 23 -32 30 -22 43 10 13 10 13 -5 2 -19 -15 -42 -7 -32
10 4 7 2 8 -5 4 -6 -4 -45 0 -87 9 -41 10 -77 15 -80 13 -2 -3 24 -11 58 -18
35 -7 68 -17 74 -21 6 -5 14 -6 17 -2 4 3 9 -2 13 -11 3 -9 10 -14 14 -11 4 3
22 -8 39 -24 44 -41 42 -80 -4 -102 -33 -15 -34 -15 -38 5 -4 20 -4 20 -6 -1
0 -13 -5 -23 -10 -23 -5 0 -17 -3 -25 -6 -12 -5 -15 -2 -9 12 4 12 3 15 -5 10
-7 -4 -12 -1 -12 8 0 9 -4 16 -9 16 -5 0 -7 -8 -4 -18 3 -12 -2 -18 -14 -19
-12 -1 -23 11 -34 37 -9 21 -27 43 -39 50 -22 12 -22 11 3 -21 30 -41 39 -69
29 -86 -13 -21 -117 -36 -252 -37 -138 -1 -224 15 -243 45 -7 11 -17 19 -24
19 -6 0 -14 8 -17 18 -3 9 -15 23 -27 30 -19 12 -20 11 -14 -8 6 -19 5 -20
-14 -8 -12 7 -21 16 -21 21 0 4 -5 5 -10 2 -6 -3 -13 1 -16 9 -3 9 -11 13 -17
9 -6 -4 -8 0 -4 11 4 10 3 15 -3 11 -6 -3 -10 -1 -10 5 0 6 -4 8 -10 5 -5 -3
-10 -2 -10 4 0 12 7 16 42 25 23 5 30 1 48 -29 12 -19 26 -35 31 -35 5 0 0 14
-13 30 -27 38 -19 47 52 59 31 5 42 9 25 9 -16 0 -61 -5 -100 -12 -38 -7 -74
-10 -80 -7 -16 9 -36 10 -30 1 3 -4 -9 -10 -26 -12 -16 -3 -33 0 -36 5 -3 6
-1 7 5 3 6 -3 13 -2 16 3 4 5 -7 7 -23 5 -16 -3 -32 0 -36 6 -3 6 -9 9 -13 7
-4 -2 -15 4 -24 15 -12 12 -14 18 -5 19 6 0 36 2 65 4 68 4 80 15 17 15 -43 0
-47 2 -35 14 8 8 35 21 60 30 l45 17 -40 -6 c-22 -4 -50 -9 -62 -12 -44 -10
-23 14 35 40 31 15 48 24 37 21 -11 -3 -24 -7 -30 -8 -5 -1 -20 -8 -32 -14
-33 -18 -28 -2 13 46 33 39 69 60 48 29 -5 -7 0 -3 11 9 23 25 298 164 325
164 10 0 20 4 22 8 2 5 57 36 124 69 66 33 140 73 164 88 52 33 135 62 201 71
l49 7 -35 -74 c-19 -40 -38 -88 -41 -106 -3 -17 -13 -34 -23 -36 -9 -3 0 -5
19 -5 19 0 53 5 75 13 46 15 28 19 -27 6 -44 -10 -47 -2 -24 54 14 32 19 35
58 37 l43 1 -37 4 c-21 2 -38 6 -38 9 0 3 11 27 25 53 l24 49 110 26 c60 15
131 26 158 27 26 0 59 0 73 0 14 0 53 0 86 0 64 0 114 -9 114 -20 0 -3 -21
-14 -46 -25 -25 -10 -43 -20 -41 -22 2 -2 30 7 61 21 47 21 60 23 70 12 23
-23 36 -55 35 -89 0 -27 -2 -30 -9 -13 -6 13 -9 15 -9 5 -1 -12 -13 -14 -58
-12 -32 2 -55 1 -52 -3 4 -3 21 -7 38 -7 28 -1 31 -4 31 -35 0 -19 -12 -55
-27 -81 l-27 -47 27 24 c14 13 24 28 21 32 -3 5 0 9 5 9 6 0 11 6 11 13 0 16
29 77 36 77 3 0 2 -10 -2 -22 -6 -20 -5 -21 9 -9 27 22 31 75 11 130 -26 74
-56 84 -262 89 -154 4 -169 2 -290 -27 -70 -17 -156 -38 -192 -46 -36 -9 -159
-60 -275 -114 -319 -150 -553 -252 -591 -258 -26 -4 -34 -2 -34 9 0 9 -7 21
-15 28 -13 11 -13 15 -3 22 10 6 10 10 -2 18 -13 8 -12 10 4 10 15 0 16 3 7
14 -9 11 -7 25 13 63 50 95 90 188 91 208 0 16 9 21 42 26 62 8 137 66 266
207 26 29 59 59 72 68 14 9 25 21 25 27 0 6 8 19 18 30 9 11 11 17 5 13 -9 -5
-13 1 -13 18 0 25 15 36 22 16 3 -11 63 5 83 23 5 4 28 18 49 30 39 22 58 47
36 47 -6 0 -9 -4 -6 -9 7 -11 -22 -23 -36 -15 -6 4 -5 10 3 15 11 6 9 9 -7 9
-22 0 -64 -38 -64 -59 0 -8 -6 -11 -16 -7 -9 4 -23 1 -31 -5 -7 -7 -16 -9 -20
-5 -4 3 -16 -9 -27 -27 -61 -98 -67 -105 -100 -111 -18 -3 -46 -20 -62 -37
-16 -17 -65 -48 -109 -68 -44 -21 -89 -48 -99 -59 -22 -26 -11 -29 16 -5 17
15 18 15 12 -18 -8 -36 -21 -52 -41 -45 -6 3 -14 -2 -17 -10 -3 -9 -11 -12
-16 -9 -14 9 7 35 27 35 8 0 11 5 8 11 -5 7 -13 5 -25 -6 -17 -15 -19 -15 -32
12 -21 44 -51 38 -60 -12 -3 -22 -13 -58 -22 -80 -8 -22 -15 -50 -16 -62 0
-12 -5 -34 -11 -50 -8 -21 -12 -24 -19 -13 -5 8 -6 19 -2 25 3 5 -2 4 -11 -3
-14 -12 -16 -11 -12 7 2 12 0 21 -6 21 -5 0 -9 7 -9 15 0 8 -7 15 -15 15 -10
0 -12 6 -8 18 6 15 5 15 -10 3 -14 -11 -17 -11 -17 1 0 8 -5 19 -12 26 -7 7
-14 30 -15 52 -2 22 -9 53 -18 69 -18 37 -77 73 -130 81 l-40 6 51 51 c83 82
223 169 399 248 55 25 91 48 93 58 5 25 -13 21 -126 -34z m-1516 -156 c-11
-11 -19 6 -11 24 8 17 8 17 12 0 3 -10 2 -21 -1 -24z m54 -54 c0 -5 -4 -9 -10
-9 -5 0 -10 7 -10 16 0 8 5 12 10 9 6 -3 10 -10 10 -16z m1905 0 c-10 -15 -25
-10 -19 6 4 8 10 12 15 9 5 -3 7 -10 4 -15z m-1835 -49 c0 -5 -7 -7 -15 -4 -8
4 -15 8 -15 10 0 2 7 4 15 4 8 0 15 -4 15 -10z m1730 -20 c-41 -34 -55 -38
-38 -10 10 16 43 35 68 39 2 1 -11 -12 -30 -29z m-1685 0 c10 -11 15 -23 12
-27 -8 -7 -47 25 -47 39 0 14 16 9 35 -12z m45 -72 c0 -9 4 -8 10 2 9 13 10
13 11 0 0 -10 2 -11 6 -2 3 9 24 2 73 -24 79 -41 106 -66 93 -87 -7 -13 -18
-10 -69 14 -34 16 -66 39 -74 53 -15 30 -46 46 -36 19 6 -15 4 -15 -14 2 -22
20 -26 35 -10 35 6 0 10 -6 10 -12z m1566 3 c8 7 14 7 14 1 0 -5 -7 -15 -15
-22 -8 -7 -15 -10 -15 -7 0 3 -2 11 -3 19 -2 7 -2 9 1 5 2 -4 10 -3 18 4z
m-53 -43 c-28 -48 -95 -73 -92 -35 0 7 3 7 6 -2 4 -9 10 -3 19 18 12 30 34 43
34 20 0 -5 -4 -7 -10 -4 -5 3 -10 4 -10 1 0 -3 4 -7 10 -11 5 -3 16 8 25 25 9
17 20 28 26 25 5 -4 2 -19 -8 -37z m-983 -33 c0 -14 -4 -25 -10 -25 -11 0 -14
33 -3 43 11 11 13 8 13 -18z m502 -10 c6 -14 8 -28 4 -33 -9 -8 -36 26 -36 45
0 22 20 14 32 -12z m275 0 c4 -4 2 -5 -4 -1 -9 5 -11 -1 -7 -22 4 -18 -3 -58
-16 -101 -24 -76 -35 -92 -26 -38 5 29 4 28 -9 -8 l-15 -40 6 50 c3 27 12 62
20 77 8 15 14 43 14 62 0 34 17 43 37 21z m-1197 -31 c0 -2 -9 0 -20 6 -11 6
-20 13 -20 16 0 2 9 0 20 -6 11 -6 20 -13 20 -16z m1369 13 c-2 -1 -13 -9 -24
-17 -19 -14 -19 -14 -6 3 7 9 18 17 24 17 6 0 8 -1 6 -3z m-2581 -22 c33 -13
35 -13 18 0 -18 14 -14 15 50 15 70 0 221 -37 250 -61 8 -6 27 -35 43 -65 l29
-54 -56 -2 -57 -2 58 -3 c56 -4 59 -6 73 -38 24 -59 20 -67 -33 -61 l-48 5 53
-16 54 -16 -7 -36 c-3 -20 -8 -47 -11 -61 -3 -14 4 -5 15 20 11 25 20 53 20
64 1 17 7 18 64 13 l62 -6 -45 14 c-25 8 -55 15 -67 15 -13 0 -23 5 -23 11 0
7 -21 55 -47 108 -26 53 -49 100 -51 105 -6 12 96 -3 138 -21 19 -8 67 -34
105 -57 39 -24 128 -73 198 -108 70 -35 124 -67 120 -72 -4 -4 0 -4 9 -1 21 8
316 -139 348 -174 14 -15 21 -21 16 -14 -5 8 -7 16 -4 18 3 3 24 -15 47 -41
24 -25 41 -48 38 -50 -2 -2 -26 5 -52 16 -58 25 -72 20 -15 -5 22 -10 40 -25
40 -33 0 -10 -4 -12 -12 -5 -12 8 -20 9 -45 4 -9 -2 28 -41 39 -41 5 0 6 5 2
11 -4 7 2 7 17 -1 34 -18 38 -24 12 -17 -13 3 -23 2 -23 -2 0 -3 -16 -6 -34
-7 -19 0 -33 3 -30 7 2 4 0 11 -6 14 -6 4 -9 1 -8 -6 2 -8 -9 -14 -26 -15 -15
-2 -31 -5 -34 -8 -7 -7 50 -10 139 -7 49 2 68 -1 78 -13 8 -10 9 -16 3 -16 -6
0 -14 5 -17 10 -3 6 -11 10 -17 10 -6 0 -5 -7 3 -17 12 -15 12 -16 -3 -10 -10
3 -18 2 -18 -4 0 -6 -9 -5 -22 2 -21 11 -22 11 -9 -4 7 -10 11 -17 8 -17 -3 0
-13 -3 -23 -7 -12 -5 -15 -3 -9 6 6 10 3 11 -13 2 -24 -13 -35 -14 -28 -3 3 5
-11 7 -30 6 -19 -2 -32 1 -29 5 2 5 -7 11 -22 14 -27 5 -27 5 -8 -10 18 -14
18 -15 2 -9 -10 3 -44 8 -75 11 l-57 5 60 -14 c33 -8 67 -15 75 -16 8 -1 -2
-10 -23 -19 -20 -10 -34 -21 -30 -25 4 -4 -3 -9 -16 -13 -17 -4 -19 -8 -9 -14
18 -12 58 -11 58 0 0 5 -6 12 -12 14 -7 3 4 6 25 6 42 1 47 -5 15 -19 -26 -11
-50 -26 -95 -57 -22 -16 -33 -19 -36 -10 -3 8 -16 1 -36 -20 -31 -32 -41 -35
-191 -49 -36 -3 -105 0 -155 6 -49 7 -99 13 -111 14 -51 7 -58 41 -20 97 22
31 22 35 6 35 -10 0 -16 -4 -13 -9 3 -4 -2 -16 -10 -25 -9 -9 -19 -29 -22 -45
-9 -36 -25 -44 -42 -22 -7 11 -13 13 -13 7 0 -24 -20 -11 -39 26 -11 20 -20
31 -21 24 0 -7 5 -22 10 -33 6 -11 7 -19 1 -19 -10 0 -51 73 -51 91 0 11 68
-26 83 -45 5 -7 6 -3 3 7 -3 10 -6 24 -6 30 0 9 -3 9 -8 0 -6 -9 -18 -6 -46
13 -28 19 -35 29 -27 37 9 9 17 8 34 -2 20 -13 21 -13 8 3 -8 9 -11 19 -8 22
10 10 27 -6 27 -26 0 -10 4 -21 8 -24 5 -3 7 12 5 33 l-3 38 60 12 c33 7 60
14 60 17 0 8 -80 -6 -116 -21 -28 -11 -33 -10 -61 15 -17 16 -29 31 -26 34 4
3 70 7 147 8 121 1 129 2 61 7 -44 3 -86 10 -92 14 -8 5 -13 4 -13 -3 0 -7
-16 -11 -43 -9 -24 2 -48 -1 -55 -5 -17 -10 -45 1 -37 14 3 5 1 10 -6 10 -10
0 -10 3 -2 11 9 9 16 8 28 -4 12 -13 21 -14 45 -5 17 5 37 7 45 4 8 -3 15 0
15 6 0 7 -17 9 -50 5 -93 -11 -46 23 59 43 88 16 134 12 238 -24 54 -19 107
-37 118 -41 l20 -7 -20 13 c-48 30 -211 79 -265 79 -76 0 -178 -24 -239 -55
-57 -29 -71 -26 -71 12 0 33 -9 25 -12 -10 -3 -34 -18 -35 -18 -1 0 14 -4 23
-10 19 -6 -4 -8 -11 -5 -16 4 -5 1 -9 -5 -9 -6 0 -8 -4 -5 -10 3 -5 1 -10 -5
-10 -7 0 -10 7 -7 15 4 8 2 17 -3 20 -4 3 -11 -1 -13 -7 -3 -7 -6 2 -6 20 -1
18 3 31 8 28 5 -4 7 3 4 14 -6 23 6 26 27 8 7 -7 5 -1 -6 14 -10 15 -26 28
-34 31 -22 6 -41 -3 -33 -16 3 -7 2 -8 -3 -4 -5 5 -10 13 -10 18 -1 5 -2 11
-3 14 0 3 -9 1 -19 -4 -12 -6 -23 -5 -36 4 -20 15 -22 15 47 16 16 1 27 2 25
3 -2 1 -28 19 -58 40 l-55 38 40 -36 40 -36 -39 0 c-34 0 -46 7 -85 48 -25 26
-49 47 -52 47 -4 0 -11 4 -16 8 -4 5 -3 7 2 5 19 -6 20 7 2 32 -11 15 -17 19
-17 10 -1 -12 -3 -11 -14 2 -7 10 -15 15 -18 12 -10 -9 -58 57 -58 80 0 21 3
22 63 18 34 -3 64 -9 66 -14 2 -6 7 -5 11 2 6 10 15 10 37 2 26 -9 106 -3 118
9 2 2 -24 4 -58 5 -52 0 -112 5 -209 18 -22 3 -68 45 -68 62 0 7 -6 14 -12 16
-9 3 -8 11 5 31 l17 26 59 -29 c33 -17 66 -30 73 -30 7 1 -13 15 -46 31 -32
17 -55 33 -52 36 23 23 183 28 234 8z m1332 -17 c0 -6 -7 -5 -15 2 -8 7 -15
17 -15 22 0 6 7 5 15 -2 8 -7 15 -17 15 -22z m563 -3 c-3 -9 -8 -14 -10 -11
-3 3 -2 9 2 15 9 16 15 13 8 -4z m-104 -46 c8 -39 9 -40 10 -12 1 35 21 57 21
24 0 -16 6 -20 25 -19 15 2 25 9 25 18 0 13 1 13 10 0 9 -13 12 -13 24 3 13
16 15 16 30 2 9 -9 16 -13 16 -8 0 4 5 1 10 -7 7 -11 10 -11 10 -2 0 8 5 10
13 5 6 -4 15 -8 20 -9 4 -1 10 -3 15 -4 4 -1 16 -3 26 -4 10 0 20 -9 22 -19 3
-25 14 -35 14 -14 0 11 5 14 17 10 12 -5 15 -2 10 10 -3 9 -4 17 -1 17 7 0 38
-73 35 -84 -1 -5 13 -6 31 -2 20 3 28 3 20 -3 -11 -7 -11 -9 2 -14 10 -4 16
-18 16 -37 0 -17 3 -29 8 -27 4 3 13 -1 20 -9 11 -12 10 -15 -2 -20 -9 -3 -22
-4 -30 -1 -17 7 -40 -18 -31 -33 3 -6 11 -7 17 -4 7 5 8 2 4 -5 -10 -16 -58
-10 -73 9 -6 8 -15 12 -19 7 -4 -4 -18 3 -31 15 -19 18 -23 19 -17 5 8 -22
-12 -19 -40 5 -18 16 -22 16 -42 3 -21 -14 -24 -12 -48 16 -14 17 -26 26 -26
20 0 -5 5 -13 10 -16 6 -3 10 -11 10 -17 0 -6 -10 -3 -22 8 -12 10 -18 13 -13
5 6 -11 4 -13 -7 -8 -9 3 -21 0 -27 -6 -8 -8 -11 -8 -11 1 0 16 -27 15 -33 0
-4 -9 -6 -8 -6 2 -1 9 -10 16 -20 16 -11 0 -18 -3 -16 -6 2 -3 0 -12 -6 -20
-6 -10 -9 -11 -9 -2 0 6 -4 12 -10 12 -5 0 -10 -7 -10 -16 0 -12 -4 -14 -12
-7 -7 6 -21 13 -32 17 -14 5 -17 2 -12 -9 3 -8 1 -15 -5 -15 -6 0 -7 -6 -2
-12 4 -7 -5 -5 -20 5 -32 21 -37 21 -37 2 0 -8 -4 -15 -10 -15 -5 0 -10 5 -10
11 0 8 -5 8 -15 -1 -9 -7 -15 -8 -15 -2 0 5 -7 13 -16 16 -8 3 -13 2 -10 -3 3
-5 0 -14 -7 -20 -11 -8 -14 -7 -14 7 0 9 4 23 10 30 7 8 5 12 -7 12 -22 0 -21
20 2 21 10 0 12 3 5 6 -21 8 -15 23 10 24 12 0 17 3 10 6 -10 3 -10 7 0 18 7
7 15 11 19 8 5 -2 16 1 25 6 15 9 14 11 -12 12 -17 1 -23 3 -12 6 9 2 15 9 12
14 -4 5 4 9 15 9 16 0 20 5 16 15 -3 10 1 15 12 15 9 0 32 14 50 31 17 16 32
25 32 18 0 -8 6 -7 18 3 9 9 25 14 35 13 10 -2 17 3 17 13 0 27 10 6 19 -39z
m268 15 c-3 -3 -12 -4 -19 -1 -8 3 -5 6 6 6 11 1 17 -2 13 -5z m343 -71 c-10
-16 -11 -15 -6 7 3 14 6 32 7 40 1 8 4 5 6 -7 2 -12 -1 -30 -7 -40z m-2654
-20 c-7 -7 -26 7 -26 19 0 6 6 6 15 -2 9 -7 13 -15 11 -17z m2415 13 c5 3 9 0
9 -6 0 -15 -23 -7 -26 8 -1 7 0 8 3 2 2 -5 9 -8 14 -4z m1796 -68 c-3 -7 -5
-2 -5 12 0 14 2 19 5 13 2 -7 2 -19 0 -25z m-3102 -48 c3 -5 1 -10 -4 -10 -6
0 -11 5 -11 10 0 6 2 10 4 10 3 0 8 -4 11 -10z m2020 -10 c-3 -5 -14 -10 -23
-9 -14 0 -13 2 3 9 27 11 27 11 20 0z m-3035 -62 c0 -12 -6 -9 -26 13 -19 22
-19 22 4 8 12 -8 22 -17 22 -21z m2393 7 c4 -8 2 -17 -3 -20 -6 -4 -10 -4 -10
-1 0 2 -3 11 -6 20 -3 9 -2 16 4 16 5 0 12 -7 15 -15z m57 -36 c12 -8 10 -9
-7 -4 -14 4 -23 2 -23 -5 0 -6 -5 -8 -11 -4 -8 4 -7 9 2 15 18 11 21 11 39 -2z
m-1125 -39 c3 -5 2 -10 -4 -10 -5 0 -13 5 -16 10 -3 6 -2 10 4 10 5 0 13 -4
16 -10z m85 -53 c0 -8 -4 -7 -10 3 -5 8 -10 11 -10 7 0 -11 -40 12 -40 24 0 5
14 3 30 -6 17 -9 30 -21 30 -28z m612 1 c-6 -6 -7 0 -4 19 5 21 7 23 10 9 2
-10 0 -22 -6 -28z m473 32 c3 -6 -1 -7 -9 -4 -18 7 -21 14 -7 14 6 0 13 -4 16
-10z m196 -11 c-13 -11 -26 -17 -29 -14 -7 6 29 34 43 34 6 0 -1 -9 -14 -20z
m-586 1 c-3 -5 -12 -10 -18 -10 -7 0 -6 4 3 10 19 12 23 12 15 0z m-168 -9
c10 9 13 7 13 -5 0 -10 4 -15 9 -12 5 3 11 -1 15 -9 6 -17 -9 -21 -19 -5 -3 6
-14 10 -25 10 -10 0 -21 8 -25 18 -5 13 -4 14 6 5 9 -9 16 -10 26 -2z m-413
-23 c26 -1 40 -7 48 -21 7 -14 12 -16 18 -7 5 8 10 8 14 2 3 -6 14 -9 24 -7 9
1 11 0 5 -2 -7 -3 -13 -9 -13 -14 0 -6 5 -7 12 -3 7 5 8 3 4 -5 -6 -9 -13 -8
-28 6 -16 14 -20 15 -18 3 6 -38 0 -44 -23 -22 -13 12 -26 19 -30 16 -4 -4
-16 4 -28 17 -11 13 -18 18 -14 12 11 -22 -9 -14 -24 8 -10 18 -15 19 -22 8
-5 -8 -9 -9 -9 -3 0 17 12 25 30 19 10 -3 34 -6 54 -7z m1066 -9 c-7 -11 -14
-18 -17 -15 -8 8 5 36 17 36 7 0 7 -6 0 -21z m-700 1 c0 -5 -4 -10 -10 -10 -5
0 -10 5 -10 10 0 6 5 10 10 10 6 0 10 -4 10 -10z m670 -10 c0 -18 -10 -25 -32
-21 -5 0 -8 -3 -8 -9 0 -14 -58 -42 -65 -31 -3 5 0 21 6 35 l12 25 18 -22 19
-22 -10 30 c-9 28 -9 29 5 11 15 -20 15 -20 16 0 0 18 1 18 9 -1 8 -19 9 -19
9 3 1 27 21 30 21 2z m-2284 -35 c1 -8 -2 -15 -6 -15 -5 0 -8 9 -7 20 1 21 10
18 13 -5z m2142 13 c9 -9 12 -9 12 0 0 7 4 12 10 12 6 0 5 -10 -2 -25 -12 -26
-31 -36 -22 -11 4 12 -1 14 -22 10 -24 -4 -26 -3 -14 11 15 18 22 19 38 3z
m-733 -8 c-3 -5 -14 -10 -23 -10 -15 0 -15 2 -2 10 20 13 33 13 25 0z m-144
-51 c16 -11 29 -25 29 -31 0 -6 8 -17 18 -25 16 -14 16 -14 0 -9 -11 3 -18 0
-18 -7 0 -7 -6 -1 -13 13 -8 14 -20 24 -28 22 -8 -2 -11 0 -6 4 4 4 0 18 -8
31 -19 28 -12 29 26 2z m1000 3 c-15 -28 -49 -54 -63 -50 -9 3 -2 16 21 36 37
35 57 42 42 14z m-531 -67 c0 -7 -7 -19 -17 -26 -15 -13 -16 -11 -9 14 5 22 4
27 -6 21 -7 -4 -10 -4 -6 1 4 4 2 15 -5 23 -9 11 -4 11 16 -2 15 -10 27 -24
27 -31z m-503 3 c-3 -8 -6 -5 -6 6 -1 11 2 17 5 13 3 -3 4 -12 1 -19z m453 13
c0 -6 -4 -12 -8 -15 -5 -3 -9 1 -9 9 0 8 4 15 9 15 4 0 8 -4 8 -9z m120 -11
c-8 -5 -17 -7 -19 -4 -3 3 1 9 9 14 8 5 17 7 19 4 3 -3 -1 -9 -9 -14z m1637
-2 c-3 -8 -6 -5 -6 6 -1 11 2 17 5 13 3 -3 4 -12 1 -19z m-1787 8 c0 -2 -7 -6
-15 -10 -8 -3 -15 -1 -15 4 0 6 7 10 15 10 8 0 15 -2 15 -4z m-300 -16 c0 -5
-2 -10 -4 -10 -3 0 -8 5 -11 10 -3 6 -1 10 4 10 6 0 11 -4 11 -10z m30 -11 c0
-6 -4 -7 -10 -4 -5 3 -10 11 -10 16 0 6 5 7 10 4 6 -3 10 -11 10 -16z m825 1
c3 -5 1 -10 -4 -10 -6 0 -11 5 -11 10 0 6 2 10 4 10 3 0 8 -4 11 -10z m-2037
-18 c3 -9 -2 -13 -14 -10 -9 1 -19 9 -22 16 -3 9 2 13 14 10 9 -1 19 -9 22
-16z m1159 -14 c-3 -7 -5 -2 -5 12 0 14 2 19 5 13 2 -7 2 -19 0 -25z m-1204
-11 c-2 -4 -12 -2 -21 5 -14 11 -15 10 -9 -5 5 -14 3 -18 -10 -15 -27 5 -25
23 4 34 28 10 48 0 36 -19z m2031 18 c3 -8 1 -15 -4 -15 -6 0 -10 7 -10 15 0
8 2 15 4 15 2 0 6 -7 10 -15z m1291 5 c-3 -5 -11 -10 -16 -10 -6 0 -7 5 -4 10
3 6 11 10 16 10 6 0 7 -4 4 -10z m-3227 -39 l33 -28 -26 -17 c-14 -9 -25 -12
-25 -6 0 5 6 10 13 10 6 0 -3 12 -21 26 -18 14 -30 30 -27 35 9 14 17 11 53
-20z m-44 -10 c13 -14 16 -28 11 -50 -4 -17 -11 -31 -16 -31 -12 0 -12 27 1
32 6 2 -1 15 -15 30 -14 15 -25 30 -25 33 0 12 28 3 44 -14z m3249 4 c-3 -9
-8 -14 -10 -11 -3 3 -2 9 2 15 9 16 15 13 8 -4z m-1563 -90 c5 3 10 11 10 16
0 6 7 17 15 25 13 14 15 11 16 -28 1 -39 2 -40 8 -13 5 25 8 27 14 12 5 -13
13 -16 27 -12 11 3 20 2 20 -3 0 -10 52 5 78 21 8 5 12 3 12 -7 0 -9 -8 -17
-17 -17 -17 -1 -17 -2 0 -6 9 -2 15 -9 12 -14 -4 -5 3 -9 15 -9 12 0 19 -4 16
-9 -4 -5 0 -12 6 -14 7 -3 4 -6 -7 -6 -11 -1 -31 6 -43 15 -12 8 -22 11 -22 6
0 -5 -14 -12 -32 -16 -17 -3 -29 -8 -27 -11 3 -2 21 0 40 4 24 6 41 4 52 -4
10 -7 27 -11 40 -10 12 1 14 0 4 -2 -9 -2 -14 -9 -11 -15 4 -6 2 -8 -4 -4 -6
3 -14 1 -17 -5 -4 -5 -13 -8 -21 -5 -17 6 -17 1 -4 -24 7 -13 7 -21 0 -25 -6
-4 -7 -13 -1 -23 6 -11 4 -21 -4 -29 -10 -9 -17 -8 -31 8 -9 10 -14 22 -11 26
4 4 14 -2 23 -13 14 -18 15 -18 4 4 -6 12 -15 22 -20 22 -16 0 -22 -20 -10
-35 8 -10 8 -15 0 -20 -9 -5 -9 -10 -1 -18 6 -6 11 -16 11 -22 0 -5 -9 1 -19
15 -11 13 -17 28 -15 32 3 4 -5 12 -16 18 l-21 11 21 -40 c11 -23 17 -41 12
-41 -5 0 -14 10 -21 23 -6 12 -9 14 -7 5 3 -10 1 -18 -5 -18 -6 0 -7 -5 -3
-12 4 -7 3 -8 -4 -4 -6 4 -10 12 -8 19 1 7 1 9 -1 4 -3 -4 -9 -4 -15 -1 -6 4
-8 -1 -4 -14 6 -18 3 -20 -20 -18 -16 2 -32 13 -40 27 -9 15 -14 19 -14 9 -1
-10 -4 -9 -11 5 -7 16 -8 13 -4 -13 3 -20 1 -31 -5 -27 -6 4 -10 -16 -10 -52
1 -45 3 -54 11 -40 6 9 15 14 21 11 8 -5 9 3 5 24 -8 39 0 42 14 5 8 -22 12
-24 19 -13 7 11 13 7 25 -20 15 -34 15 -35 13 -6 -2 23 1 30 20 32 15 3 22 -1
23 -14 0 -12 2 -13 6 -3 5 11 7 11 14 0 7 -12 9 -12 9 0 0 11 3 11 16 0 15
-12 16 -11 9 9 -7 23 -6 23 18 7 19 -12 26 -13 29 -4 3 9 11 6 26 -9 13 -13
20 -27 16 -33 -7 -12 25 -51 37 -44 4 3 11 0 15 -6 4 -7 3 -9 -4 -5 -6 3 -13
2 -17 -3 -3 -6 -13 -7 -22 -4 -13 5 -15 2 -10 -11 4 -10 3 -15 -3 -11 -6 3
-10 1 -10 -5 0 -7 -7 -5 -16 4 -16 17 -29 22 -20 8 5 -9 -22 -48 -32 -45 -3 1
-9 10 -13 20 -7 17 -8 17 -9 -2 l-1 -20 -9 20 c-8 19 -9 19 -9 -2 -1 -30 -21
-40 -28 -14 -3 11 -10 18 -15 15 -5 -3 -7 -13 -3 -21 4 -13 3 -14 -10 -3 -13
11 -18 10 -29 -5 -12 -16 -13 -16 -19 -1 -4 9 -11 16 -17 16 -6 0 -8 -5 -4
-12 4 -7 3 -8 -4 -4 -6 4 -21 2 -32 -4 -15 -8 -20 -8 -21 2 0 10 -2 10 -6 1
-3 -9 -10 -10 -24 -2 -16 8 -21 6 -29 -13 -8 -22 -9 -21 -10 7 l-1 30 -14 -25
c-10 -18 -14 -20 -15 -8 0 9 -4 19 -9 22 -5 4 -7 -4 -5 -16 2 -13 2 -18 -1
-12 -3 7 -14 10 -24 7 -14 -3 -22 3 -29 24 -9 25 -11 25 -11 6 -1 -25 -8 -28
-30 -14 -9 6 -11 19 -7 42 3 19 3 28 0 21 -3 -6 -9 -10 -14 -7 -4 2 -11 -10
-15 -28 -7 -32 -7 -32 -16 -8 -5 14 -7 31 -5 38 9 23 -3 14 -19 -14 -14 -24
-16 -25 -12 -5 6 28 0 28 -24 0 -11 -11 -19 -16 -19 -10 0 6 5 14 10 17 6 3
10 13 10 22 0 14 -3 14 -20 -2 -11 -10 -20 -14 -20 -9 0 5 -7 0 -15 -10 -23
-30 -18 -8 6 31 18 29 19 37 8 44 -9 5 -20 1 -34 -15 -24 -28 -60 -44 -52 -22
3 7 1 18 -5 24 -7 7 -6 17 2 33 13 24 13 24 -7 4 -11 -11 -18 -25 -16 -31 2
-7 0 -15 -5 -18 -5 -3 -8 7 -6 24 3 21 0 28 -10 24 -15 -6 -29 22 -19 39 3 7
-4 3 -17 -8 l-23 -20 12 23 c6 12 9 22 5 22 -4 0 2 10 14 23 12 13 20 26 17
29 -3 3 2 11 12 19 15 12 16 12 8 -1 -5 -9 1 -7 15 5 13 11 20 14 16 8 -4 -8
-2 -13 5 -13 7 0 9 -10 7 -25 -3 -15 -1 -22 5 -18 6 4 8 0 4 -11 -12 -31 10
-7 28 31 10 21 20 33 22 26 3 -7 -1 -21 -7 -33 -8 -16 -8 -20 2 -18 7 2 12 -5
12 -14 -1 -10 3 -16 8 -15 6 1 13 -4 16 -12 3 -9 0 -11 -8 -6 -9 6 -11 4 -5
-4 5 -9 16 -3 37 21 16 18 27 25 24 16 -3 -10 -9 -26 -12 -35 -3 -10 3 -5 14
10 l20 29 16 -23 c9 -13 16 -18 16 -11 0 6 5 12 10 12 6 0 8 -12 5 -27 l-5
-28 14 29 c8 18 16 24 20 17 4 -6 4 -17 0 -23 -6 -10 -4 -10 7 0 14 13 33 17
25 4 -2 -4 -1 -14 5 -22 7 -12 9 -12 9 3 0 10 5 15 10 12 6 -3 10 -2 10 3 0
10 42 8 59 -3 6 -3 11 0 12 7 0 7 4 4 9 -7 7 -17 9 -14 10 15 l2 35 17 -38
c20 -43 31 -39 31 12 0 30 -19 85 -20 57 0 -5 -8 -2 -17 5 -11 10 -14 10 -9 2
4 -7 2 -13 -4 -13 -6 0 -15 10 -21 23 -9 21 -9 21 -6 1 3 -12 0 -28 -5 -35 -7
-11 -8 -9 -6 5 2 10 -3 21 -9 23 -7 3 -13 -1 -13 -9 -1 -7 -7 -2 -15 12 -8 14
-14 19 -15 13 0 -20 -17 -15 -23 7 -4 15 -10 18 -24 13 -10 -3 -21 -11 -25
-17 -5 -7 -8 -4 -8 7 0 11 -4 15 -12 11 -8 -5 -9 -2 -4 12 22 53 15 73 -14 39
-11 -13 -10 -14 6 -8 17 6 17 5 6 -10 -17 -20 -43 -12 -35 11 3 10 1 13 -4 7
-11 -13 -43 -18 -43 -7 0 5 6 15 14 21 18 15 18 61 0 68 -20 7 -7 22 14 16 10
-2 29 5 43 16 l24 21 -33 -16 c-38 -18 -57 -10 -28 12 11 7 18 16 15 18 -2 3
-19 -8 -38 -24 -18 -17 -37 -27 -42 -24 -14 8 -1 24 28 35 22 8 24 11 12 27
-12 15 -12 16 2 4 25 -19 45 -5 68 46 11 26 21 40 21 32 0 -13 1 -13 10 0 8
12 10 11 10 -6 0 -12 -7 -27 -15 -34 -8 -7 -15 -24 -14 -39 l0 -26 11 25 c9
21 12 22 15 7 3 -9 9 -15 14 -12 5 4 6 17 3 30 -3 12 -1 26 5 29 7 4 11 -1 11
-13 0 -26 10 -51 21 -51 5 0 7 11 3 25 -3 14 -3 33 1 42 6 14 11 10 21 -22
l12 -40 1 38 c1 49 21 39 22 -11 0 -30 2 -33 9 -17 l9 20 1 -20 c1 -12 4 -15
7 -7 4 9 8 10 18 2 11 -9 12 -7 8 9 -3 12 -1 21 6 21 6 0 11 -5 11 -11 0 -5 5
-7 10 -4 7 4 7 12 0 25 -7 13 -6 19 5 24 11 4 15 -2 15 -20 0 -14 4 -22 10
-19 6 3 10 1 10 -4 0 -6 5 -11 10 -11 6 0 4 13 -5 30 -8 16 -15 39 -14 52 0
16 7 7 24 -30 14 -30 29 -51 35 -47z m-1816 70 c3 -8 1 -15 -4 -15 -6 0 -10 7
-10 15 0 8 2 15 4 15 2 0 6 -7 10 -15z m106 -32 c0 -7 -5 -13 -12 -13 -6 0 -3
-9 7 -20 21 -23 13 -39 -10 -20 -10 9 -14 22 -11 36 4 13 2 26 -4 29 -5 3 -10
13 -10 22 0 14 3 14 20 -2 11 -10 20 -24 20 -32z m1333 27 c-10 -11 -21 -20
-25 -20 -4 0 0 9 9 20 10 11 21 20 25 20 4 0 0 -9 -9 -20z m38 -3 c-10 -9 -11
-8 -5 6 3 10 9 15 12 12 3 -3 0 -11 -7 -18z m424 -21 c2 -14 -1 -26 -6 -26 -5
0 -9 3 -10 8 0 4 -3 21 -5 37 -4 23 -3 27 7 18 6 -6 13 -23 14 -37z m73 -6
c15 -1 14 -3 -2 -15 -19 -15 -46 -21 -33 -9 3 4 0 13 -8 21 -8 8 -15 24 -15
36 1 21 2 20 21 -5 11 -16 28 -28 37 -28z m-1920 1 c-2 -10 3 -25 11 -35 8 -9
11 -20 7 -24 -10 -10 -38 29 -32 45 3 7 1 15 -5 18 -5 4 -7 11 -3 16 9 14 25
-1 22 -20z m1762 -11 c0 -13 -1 -13 -10 0 -5 8 -10 22 -10 30 0 13 1 13 10 0
5 -8 10 -22 10 -30z m-120 16 c0 -8 -4 -17 -9 -21 -12 -7 -24 12 -16 25 9 15
25 12 25 -4z m1622 -9 c-7 -8 -8 -18 -4 -22 4 -5 1 -5 -5 -1 -7 4 -13 13 -13
21 0 7 6 15 13 18 18 6 22 -1 9 -16z m-1909 5 c16 -7 16 -9 2 -30 -9 -12 -23
-22 -31 -22 -12 0 -12 3 1 24 13 19 13 25 3 29 -7 3 -8 5 -3 6 6 0 18 -4 28
-7z m77 2 c0 -15 -22 -44 -30 -39 -6 4 -5 14 3 25 11 19 27 27 27 14z m-415
-12 c-26 -4 -28 -5 -10 -12 14 -6 6 -9 -30 -9 -48 -1 -49 0 -25 13 14 8 41 14
60 14 33 -1 34 -1 5 -6z m148 -7 c-3 -17 -27 -17 -48 0 -19 15 -18 15 15 13
19 -2 34 -7 33 -13z m-1050 -54 c1 -11 4 -21 8 -21 4 0 9 -7 13 -15 3 -8 1
-15 -4 -15 -16 0 -41 32 -36 46 3 7 1 16 -5 19 -5 4 -6 11 -3 17 9 14 25 -4
27 -31z m2002 29 c-3 -5 -12 -10 -18 -10 -7 0 -6 4 3 10 19 12 23 12 15 0z
m-802 -47 c-7 -2 -19 -2 -25 0 -7 3 -2 5 12 5 14 0 19 -2 13 -5z m-1228 -13
c3 -6 -1 -7 -9 -4 -18 7 -21 14 -7 14 6 0 13 -4 16 -10z m1250 -47 c-21 -16
-18 -16 33 4 27 11 0 -18 -38 -40 l-31 -19 5 26 c6 35 14 46 34 46 15 -1 14
-3 -3 -17z m685 -4 c0 -6 -4 -7 -10 -4 -5 3 -10 11 -10 16 0 6 5 7 10 4 6 -3
10 -11 10 -16z m-660 -44 c-13 -14 -27 -25 -32 -25 -13 0 15 39 32 44 8 2 17
4 19 5 3 0 -6 -10 -19 -24z m625 15 c3 -5 2 -10 -4 -10 -5 0 -13 5 -16 10 -3
6 -2 10 4 10 5 0 13 -4 16 -10z m-24 -37 c13 -16 12 -17 -3 -4 -10 7 -18 15
-18 17 0 8 8 3 21 -13z m-578 -28 c-3 -9 -8 -14 -10 -11 -3 3 -2 9 2 15 9 16
15 13 8 -4z m-619 -37 c-3 -5 -12 -7 -20 -4 -8 3 -13 2 -12 -2 2 -4 -6 -19
-16 -34 -10 -15 -19 -34 -20 -43 -1 -8 -19 -33 -40 -54 -21 -22 -44 -50 -50
-63 -7 -12 -20 -22 -29 -22 -9 1 -14 -2 -11 -7 3 -5 0 -9 -5 -9 -16 0 -13 36
4 50 8 7 15 21 15 31 0 11 9 28 19 38 11 11 17 22 14 25 -8 8 23 41 81 88 38
30 51 36 62 27 8 -6 11 -16 8 -21z m510 5 c-4 -16 -10 -32 -15 -37 -7 -8 -4
17 7 52 7 24 14 11 8 -15z m1290 -13 c6 0 18 -9 26 -19 7 -11 17 -18 22 -15 4
3 11 -2 14 -10 3 -9 10 -14 14 -11 8 5 94 -85 111 -116 10 -19 -5 -37 -16 -19
-3 5 -15 10 -26 10 -11 0 -47 25 -80 57 -46 43 -59 63 -60 87 -1 19 -3 24 -6
13 -5 -18 -6 -18 -19 2 -9 12 -12 26 -8 33 6 9 9 9 12 0 2 -7 9 -12 16 -12z
m-518 -2 c3 -4 -1 -5 -10 -4 -8 1 -18 5 -22 8 -3 4 1 5 10 4 8 -1 18 -5 22 -8z
m-539 -30 c-3 -7 -5 -2 -5 12 0 14 2 19 5 13 2 -7 2 -19 0 -25z m593 -10 c0
-12 -6 -9 -26 13 -19 22 -19 22 4 8 12 -8 22 -17 22 -21z m-770 16 c0 -8 -19
-13 -24 -6 -3 5 1 9 9 9 8 0 15 -2 15 -3z m742 -29 c17 -19 36 -32 42 -28 7 3
6 1 -1 -7 -12 -13 -48 -6 -40 8 7 10 -13 36 -38 50 -11 6 -14 12 -7 12 8 0 28
-16 44 -35z m-51 0 c16 -9 39 -30 49 -48 11 -18 23 -31 27 -29 4 2 9 -1 11 -6
8 -24 -32 -2 -74 41 -25 26 -47 47 -48 47 -2 0 3 -15 12 -34 8 -18 20 -33 26
-32 6 0 13 -3 14 -9 2 -5 8 -15 13 -21 13 -16 -2 -26 -18 -13 -10 9 -13 8 -13
-1 0 -10 -3 -10 -15 0 -9 7 -14 19 -11 27 3 7 -9 30 -27 50 -18 20 -27 34 -22
31 6 -4 17 -3 25 3 19 11 16 12 51 -6z m-731 -137 c-29 -27 -34 -19 -7 14 12
15 24 22 26 17 2 -6 -7 -20 -19 -31z m730 -28 c0 -5 -2 -10 -4 -10 -3 0 -8 5
-11 10 -3 6 -1 10 4 10 6 0 11 -4 11 -10z m830 -10 c0 -5 -4 -10 -10 -10 -5 0
-10 5 -10 10 0 6 5 10 10 10 6 0 10 -4 10 -10z m-1972 -25 c0 -14 -1 -25 -2
-23 -1 2 -8 12 -16 22 -10 13 -10 17 -2 12 6 -4 12 -2 12 3 0 6 2 11 4 11 2 0
4 -11 4 -25z m69 4 c-3 -11 1 -38 8 -60 8 -22 10 -37 5 -34 -6 3 -10 1 -10 -4
0 -6 5 -11 10 -11 6 0 10 -8 10 -17 0 -15 -2 -14 -18 2 -13 14 -17 33 -16 70
3 71 3 75 10 75 4 0 4 -9 1 -21z m1980 -11 c-3 -7 -5 -2 -5 12 0 14 2 19 5 13
2 -7 2 -19 0 -25z m-1050 -20 c-3 -8 -6 -5 -6 6 -1 11 2 17 5 13 3 -3 4 -12 1
-19z m463 -5 c0 -21 -3 -24 -9 -14 -5 8 -7 20 -4 28 8 21 13 15 13 -14z m-735
-43 c3 -5 1 -10 -4 -10 -6 0 -11 5 -11 10 0 6 2 10 4 10 3 0 8 -4 11 -10z
m-62 -25 c-3 -9 -8 -14 -10 -11 -3 3 -2 9 2 15 9 16 15 13 8 -4z m127 -6 c0
-5 -4 -9 -10 -9 -5 0 -10 7 -10 16 0 8 5 12 10 9 6 -3 10 -10 10 -16z m770
-20 c0 -6 -4 -7 -10 -4 -5 3 -10 11 -10 16 0 6 5 7 10 4 6 -3 10 -11 10 -16z
m-790 -74 c0 -5 -6 -1 -12 10 -7 11 -18 26 -25 33 -7 7 -13 21 -13 30 0 10 11
0 25 -23 14 -22 25 -44 25 -50z m-104 33 c-9 -12 -16 -17 -16 -10 0 18 24 54
28 42 2 -5 -4 -20 -12 -32z m-588 19 c13 -15 28 -97 18 -97 -7 0 -46 85 -46
101 0 13 16 11 28 -4z m712 -32 c0 -8 -2 -15 -4 -15 -2 0 -6 7 -10 15 -3 8 -1
15 4 15 6 0 10 -7 10 -15z m674 -39 c-9 -14 -13 -26 -9 -26 4 0 2 -7 -5 -15
-7 -8 -16 -15 -21 -15 -17 0 -9 34 18 68 30 39 44 28 17 -12z m-1104 -10 c0
-3 -4 -8 -10 -11 -5 -3 -10 -1 -10 4 0 6 5 11 10 11 6 0 10 -2 10 -4z m795
-24 c1 -11 -2 -19 -7 -16 -4 3 -8 13 -8 22 0 21 -16 4 -22 -23 -5 -19 -5 -19
-13 -1 -6 14 -3 23 10 33 25 17 38 12 40 -15z m-1052 -49 c-8 -21 -29 3 -37
42 l-6 30 24 -29 c13 -16 22 -35 19 -43z m327 47 c0 -11 -2 -20 -4 -20 -2 0
-6 9 -9 20 -3 11 -1 20 4 20 5 0 9 -9 9 -20z m26 -27 c-11 -11 -19 6 -11 24 8
17 8 17 12 0 3 -10 2 -21 -1 -24z m70 29 c-2 -4 2 -15 9 -25 13 -18 14 -18 23
0 11 19 11 20 26 -31 2 -7 -5 -26 -16 -42 l-20 -29 6 30 c5 28 5 28 -6 8 -21
-44 -38 -27 -38 37 0 36 4 60 11 60 5 0 8 -3 5 -8z m423 -34 c2 25 21 11 41
-30 23 -49 24 -51 8 -46 -6 2 -17 20 -24 39 -7 19 -13 26 -13 17 -1 -10 -5
-18 -11 -18 -5 0 -10 -12 -10 -27 l-1 -28 -14 25 -14 25 -1 -25 c0 -20 -2 -22
-11 -10 -8 11 -9 8 -5 -15 5 -25 4 -27 -5 -12 -8 14 -14 16 -25 6 -8 -6 -14
-7 -14 -2 0 5 -6 17 -13 28 -13 16 -14 15 -10 -16 3 -23 1 -30 -5 -20 -7 10
-11 10 -14 1 -3 -9 -9 -8 -21 4 -12 13 -17 14 -18 4 0 -7 -4 -4 -9 7 -7 17 -9
17 -9 3 -1 -22 -31 -24 -31 -2 0 8 -4 12 -10 9 -5 -3 -10 1 -10 9 0 23 -17 20
-25 -4 -12 -38 -25 -20 -18 28 7 55 5 52 32 57 17 3 21 -1 22 -23 l0 -27 11
25 c9 21 12 22 15 8 3 -10 8 -18 13 -18 5 0 11 -8 14 -17 2 -10 2 -1 -1 20
l-6 39 31 -16 c39 -20 42 -20 42 2 0 14 2 14 9 3 5 -8 16 -11 24 -8 8 3 19 1
25 -5 13 -13 41 12 43 39 1 10 5 5 9 -12 4 -16 8 -24 9 -17z m-449 2 c0 -11
-2 -20 -4 -20 -2 0 -6 9 -9 20 -3 11 -1 20 4 20 5 0 9 -9 9 -20z m596 -17 c-3
-4 -6 0 -6 7 0 9 -5 7 -14 -6 -8 -10 -17 -16 -21 -12 -4 3 2 15 12 25 15 16
20 17 26 5 5 -7 6 -16 3 -19z m-62 -28 l-7 -27 -18 29 c-23 35 -24 41 -1 45
23 5 34 -15 26 -47z m-634 36 c0 -6 -4 -13 -10 -16 -5 -3 -10 1 -10 9 0 9 5
16 10 16 6 0 10 -4 10 -9z m81 -41 c-4 -12 -6 -12 -9 3 -2 9 -8 17 -14 17 -6
0 -5 7 3 16 12 14 14 14 20 -3 3 -10 4 -25 0 -33z m169 18 c0 -41 -11 -60 -29
-49 -8 5 -10 14 -6 21 5 9 4 11 -3 6 -7 -4 -12 -17 -12 -29 -1 -20 -2 -20 -11
-5 -7 12 -6 24 1 37 6 11 10 24 9 28 -3 18 2 23 26 23 22 0 25 -4 25 -32z
m791 -11 c-12 -30 -31 -36 -31 -10 0 19 33 59 38 45 1 -5 -2 -21 -7 -35z
m-761 -94 c-11 -17 -11 -17 -6 0 3 10 6 24 7 30 0 9 2 9 5 0 3 -7 0 -20 -6
-30z m730 23 c0 -3 -4 -8 -10 -11 -5 -3 -10 -1 -10 4 0 6 5 11 10 11 6 0 10
-2 10 -4z m-1420 -56 c-6 -12 -14 -19 -17 -17 -2 3 1 15 7 27 6 12 14 19 17
17 2 -3 -1 -15 -7 -27z m89 -89 c-12 -82 -23 -95 -13 -16 3 33 6 74 6 90 0 25
1 26 7 10 5 -11 4 -49 0 -84z m891 54 c0 -5 -5 -3 -10 5 -5 8 -10 20 -10 25 0
6 5 3 10 -5 5 -8 10 -19 10 -25z m450 31 c0 -3 -4 -8 -10 -11 -5 -3 -10 -1
-10 4 0 6 5 11 10 11 6 0 10 -2 10 -4z m0 -58 c0 -4 -6 -5 -14 -2 -8 3 -12 12
-9 21 5 12 7 12 14 1 5 -7 9 -16 9 -20z m90 22 c0 -5 -2 -10 -4 -10 -3 0 -8 5
-11 10 -3 6 -1 10 4 10 6 0 11 -4 11 -10z m-1103 -62 c-3 -7 -5 -2 -5 12 0 14
2 19 5 13 2 -7 2 -19 0 -25z m1008 -55 c-3 -37 -8 -69 -11 -72 -2 -3 -2 22 0
55 2 32 5 65 5 72 1 6 3 12 7 12 3 0 2 -30 -1 -67z m-1419 -16 c1 -23 -1 -30
-3 -14 -2 15 -8 27 -13 27 -4 0 -6 -10 -4 -22 4 -21 4 -22 -5 -3 l-10 20 -1
-20 c-1 -12 -4 -15 -7 -7 -5 13 22 62 35 62 4 0 8 -19 8 -43z m53 -12 c0 -5
-4 -3 -9 5 -5 8 -9 22 -9 30 0 16 17 -16 18 -35z m1461 -26 c0 -5 -4 -9 -10
-9 -5 0 -10 7 -10 16 0 8 5 12 10 9 6 -3 10 -10 10 -16z m-33 -36 c-3 -10 -5
-4 -5 12 0 17 2 24 5 18 2 -7 2 -21 0 -30z m-31 -9 c-4 -9 -9 -15 -11 -12 -3
3 -3 13 1 22 4 9 9 15 11 12 3 -3 3 -13 -1 -22z m-372 1 c3 -8 1 -15 -4 -15
-6 0 -10 7 -10 15 0 8 2 15 4 15 2 0 6 -7 10 -15z m-587 -27 c-3 -8 -6 -5 -6
6 -1 11 2 17 5 13 3 -3 4 -12 1 -19z m486 -60 c-3 -35 -10 -67 -15 -73 -6 -6
-7 -4 -2 8 3 9 1 24 -6 32 -10 13 -9 23 5 55 10 22 19 40 21 40 1 0 0 -28 -3
-62z m17 25 c-11 -17 -11 -17 -6 0 3 10 6 24 7 30 0 9 2 9 5 0 3 -7 0 -20 -6
-30z m510 21 c0 -8 -8 -23 -17 -32 -16 -16 -16 -16 -10 1 4 10 7 25 7 33 0 8
5 14 10 14 6 0 10 -7 10 -16z m-68 -16 c-7 -7 -12 -8 -12 -2 0 14 12 26 19 19
2 -3 -1 -11 -7 -17z m-1482 -253 c-7 -8 -24 -14 -39 -14 -20 1 -22 2 -6 6 11
3 24 9 30 14 15 15 28 10 15 -6z m1550 -63 c0 -15 -2 -15 -10 -2 -13 20 -13
33 0 25 6 -3 10 -14 10 -23z m-1573 -44 c-3 -8 -6 -5 -6 6 -1 11 2 17 5 13 3
-3 4 -12 1 -19z m9 -65 c-7 -7 -26 7 -26 19 0 6 6 6 15 -2 9 -7 13 -15 11 -17z
m-23 -33 c3 -11 1 -23 -4 -26 -5 -3 -9 6 -9 20 0 31 6 34 13 6z m1592 -19 c-3
-6 -11 -11 -17 -11 -6 0 -6 6 2 15 14 17 26 13 15 -4z m-1530 -49 c-3 -3 -11
0 -18 7 -9 10 -8 11 6 5 10 -3 15 -9 12 -12z m1540 -1 c-3 -6 -11 -11 -17 -11
-6 0 -6 6 2 15 14 17 26 13 15 -4z"/>
<path d="M864 3828 l-29 -33 35 30 c19 17 37 31 39 33 2 1 0 2 -5 2 -6 0 -23
-15 -40 -32z"/>
<path d="M1035 3790 c10 -11 20 -20 23 -20 3 0 -3 9 -13 20 -10 11 -20 20 -23
20 -3 0 3 -9 13 -20z"/>
<path d="M799 3743 c-13 -16 -12 -17 4 -4 9 7 17 15 17 17 0 8 -8 3 -21 -13z"/>
<path d="M1120 3726 c0 -10 59 -36 77 -35 12 0 9 3 -8 8 -14 5 -35 14 -47 20
-12 6 -22 9 -22 7z"/>
<path d="M1135 3679 c-11 -17 1 -21 15 -4 8 9 8 15 2 15 -6 0 -14 -5 -17 -11z"/>
<path d="M1196 3575 c-3 -9 -5 -31 -5 -48 1 -27 3 -24 9 13 8 48 6 61 -4 35z"/>
<path d="M1610 3536 c0 -3 33 -15 73 -27 39 -11 96 -29 126 -40 30 -10 57 -17
59 -15 2 2 -13 10 -32 17 -20 7 -36 17 -36 22 0 4 -4 6 -9 3 -7 -5 -117 22
-163 39 -10 4 -18 5 -18 1z"/>
<path d="M1809 3523 c-13 -16 -12 -17 4 -4 16 13 21 21 13 21 -2 0 -10 -8 -17
-17z"/>
<path d="M1200 3482 c0 -5 9 -21 20 -35 11 -14 20 -28 20 -31 0 -3 -21 -7 -47
-8 -36 -1 -40 -2 -16 -5 23 -3 30 -8 26 -18 -4 -11 -10 -12 -24 -4 -23 12 -24
6 -4 -15 8 -8 11 -17 6 -20 -5 -4 -21 8 -35 25 -14 17 -26 26 -26 21 0 -5 9
-17 20 -27 13 -12 18 -26 14 -39 -4 -15 -3 -17 4 -7 8 11 10 11 15 0 4 -10 8
-7 13 9 l7 23 26 -23 26 -23 -24 27 c-24 27 -24 28 -6 48 14 16 31 20 77 20
32 0 58 4 58 10 0 6 -19 10 -41 10 -35 0 -47 6 -75 36 -19 19 -34 31 -34 26z"/>
<path d="M1729 3407 c-31 -29 -39 -38 -18 -22 20 17 48 37 61 46 12 10 21 19
18 23 -3 3 -31 -18 -61 -47z"/>
<path d="M1600 3330 l-65 -7 68 -1 c39 -1 67 2 67 8 0 6 -1 9 -2 8 -2 -1 -32
-4 -68 -8z"/>
<path d="M1898 3313 c7 -3 16 -2 19 1 4 3 -2 6 -13 5 -11 0 -14 -3 -6 -6z"/>
<path d="M1963 3303 c9 -2 23 -2 30 0 6 3 -1 5 -18 5 -16 0 -22 -2 -12 -5z"/>
<path d="M2028 3293 c6 -2 18 -2 25 0 6 3 1 5 -13 5 -14 0 -19 -2 -12 -5z"/>
<path d="M1383 3283 c4 -6 3 -13 -3 -15 -6 -2 6 -8 25 -14 19 -6 35 -10 35 -8
0 1 -14 13 -32 25 -17 13 -29 18 -25 12z"/>
<path d="M2078 3283 c6 -2 18 -2 25 0 6 3 1 5 -13 5 -14 0 -19 -2 -12 -5z"/>
<path d="M2150 3267 c19 -6 44 -21 55 -32 11 -12 14 -14 7 -4 -7 9 -10 22 -7
30 4 11 -6 14 -42 15 l-48 2 35 -11z"/>
<path d="M2010 3266 c0 -2 8 -10 18 -17 15 -13 16 -12 3 4 -13 16 -21 21 -21
13z"/>
<path d="M2070 3216 c0 -2 8 -10 18 -17 15 -13 16 -12 3 4 -13 16 -21 21 -21
13z"/>
<path d="M1821 3159 c8 -5 46 -8 84 -8 85 1 75 6 -24 12 -43 3 -67 1 -60 -4z"/>
<path d="M2131 3166 c2 -2 15 -9 29 -15 24 -11 24 -11 6 3 -16 13 -49 24 -35
12z"/>
<path d="M1773 3143 c9 -2 23 -2 30 0 6 3 -1 5 -18 5 -16 0 -22 -2 -12 -5z"/>
<path d="M1708 3133 c7 -3 16 -2 19 1 4 3 -2 6 -13 5 -11 0 -14 -3 -6 -6z"/>
<path d="M1524 3084 c-18 -14 -18 -14 6 -3 31 14 36 19 24 19 -6 0 -19 -7 -30
-16z"/>
<path d="M1391 3034 c0 -11 3 -14 6 -6 3 7 2 16 -1 19 -3 4 -6 -2 -5 -13z"/>
<path d="M1991 3021 c-18 -15 -19 -20 -6 -24 8 -4 14 -2 12 3 -1 5 7 16 18 24
11 8 15 16 9 16 -6 0 -21 -8 -33 -19z"/>
<path d="M2680 3781 c0 -6 4 -13 10 -16 6 -3 7 1 4 9 -7 18 -14 21 -14 7z"/>
<path d="M2630 3771 c0 -6 4 -13 10 -16 6 -3 7 1 4 9 -7 18 -14 21 -14 7z"/>
<path d="M2927 3754 c-11 -14 -16 -28 -13 -31 3 -4 6 -1 6 5 0 7 5 11 11 10 6
-2 13 7 15 20 5 28 3 27 -19 -4z"/>
<path d="M2969 3743 l-24 -28 28 24 c25 23 32 31 24 31 -2 0 -14 -12 -28 -27z"/>
<path d="M2708 3653 c7 -3 16 -2 19 1 4 3 -2 6 -13 5 -11 0 -14 -3 -6 -6z"/>
<path d="M2495 3630 c-8 -13 5 -13 25 0 13 8 13 10 -2 10 -9 0 -20 -4 -23 -10z"/>
<path d="M3040 3612 c8 -5 26 -13 40 -16 17 -5 20 -4 10 2 -8 5 -26 13 -40 16
-17 5 -20 4 -10 -2z"/>
<path d="M2504 3584 c-18 -14 -18 -15 4 -4 12 6 22 13 22 15 0 8 -5 6 -26 -11z"/>
<path d="M3020 3596 c0 -2 7 -7 16 -10 8 -3 12 -2 9 4 -6 10 -25 14 -25 6z"/>
<path d="M2300 3382 c6 -13 14 -21 18 -18 3 4 -2 14 -12 24 -18 16 -18 16 -6
-6z"/>
<path d="M2339 3373 c12 -18 24 -33 27 -33 9 0 -15 37 -33 51 -12 10 -11 5 6
-18z"/>
<path d="M3250 3361 c0 -6 4 -13 10 -16 6 -3 7 1 4 9 -7 18 -14 21 -14 7z"/>
<path d="M2847 3059 c7 -7 15 -10 18 -7 3 3 -2 9 -12 12 -14 6 -15 5 -6 -5z"/>
<path d="M3015 3051 c-18 -4 -25 -9 -19 -14 7 -4 29 0 50 7 40 15 22 19 -31 7z"/>
<path d="M2898 3027 c-3 -19 -2 -25 4 -19 6 6 8 18 6 28 -3 14 -5 12 -10 -9z"/>
<path d="M2751 3024 c0 -11 3 -14 6 -6 3 7 2 16 -1 19 -3 4 -6 -2 -5 -13z"/>
<path d="M2852 3020 c0 -14 2 -19 5 -12 2 6 2 18 0 25 -3 6 -5 1 -5 -13z"/>
<path d="M2721 2994 c0 -11 3 -14 6 -6 3 7 2 16 -1 19 -3 4 -6 -2 -5 -13z"/>
<path d="M3080 2989 c-13 -9 -13 -10 1 -6 9 3 23 0 30 -6 11 -10 11 -9 0 6 -7
9 -14 17 -15 17 0 0 -8 -5 -16 -11z"/>
<path d="M3035 2974 c9 -9 14 -23 11 -30 -4 -9 2 -14 15 -14 19 0 19 1 5 16
-9 8 -16 22 -16 30 0 8 -7 14 -16 14 -14 0 -14 -2 1 -16z"/>
<path d="M2977 2959 c7 -7 15 -10 18 -7 3 3 -2 9 -12 12 -14 6 -15 5 -6 -5z"/>
<path d="M3010 2961 c0 -6 4 -13 10 -16 6 -3 7 1 4 9 -7 18 -14 21 -14 7z"/>
<path d="M2576 2925 c-3 -8 -1 -15 4 -15 6 0 10 7 10 15 0 8 -2 15 -4 15 -2 0
-6 -7 -10 -15z"/>
<path d="M2639 2873 c-13 -16 -12 -17 4 -4 16 13 21 21 13 21 -2 0 -10 -8 -17
-17z"/>
<path d="M2422 2695 c-6 -14 -8 -25 -3 -25 8 0 23 41 17 47 -1 2 -8 -8 -14
-22z"/>
<path d="M2980 2705 c0 -5 5 -17 10 -25 5 -8 10 -10 10 -5 0 6 -5 17 -10 25
-5 8 -10 11 -10 5z"/>
<path d="M2561 2664 c0 -11 3 -14 6 -6 3 7 2 16 -1 19 -3 4 -6 -2 -5 -13z"/>
<path d="M2691 2644 c0 -11 3 -14 6 -6 3 7 2 16 -1 19 -3 4 -6 -2 -5 -13z"/>
<path d="M3090 2651 c0 -6 4 -13 10 -16 6 -3 7 1 4 9 -7 18 -14 21 -14 7z"/>
<path d="M2722 2620 c0 -14 2 -19 5 -12 2 6 2 18 0 25 -3 6 -5 1 -5 -13z"/>
<path d="M2991 1754 c0 -11 3 -14 6 -6 3 7 2 16 -1 19 -3 4 -6 -2 -5 -13z"/>
<path d="M4569 3803 c-13 -16 -12 -17 4 -4 16 13 21 21 13 21 -2 0 -10 -8 -17
-17z"/>
<path d="M2321 3754 c0 -11 3 -14 6 -6 3 7 2 16 -1 19 -3 4 -6 -2 -5 -13z"/>
<path d="M4750 3766 c0 -2 8 -10 18 -17 15 -13 16 -12 3 4 -13 16 -21 21 -21
13z"/>
<path d="M4375 3690 c-28 -7 -27 -8 13 -9 27 -1 41 3 37 9 -7 11 -7 11 -50 0z"/>
<path d="M4588 3678 c6 -6 18 -8 28 -6 14 3 12 5 -9 10 -19 3 -25 2 -19 -4z"/>
<path d="M4688 3683 c-38 -3 -45 -7 -36 -17 9 -10 22 -10 62 1 87 22 84 24
-26 16z"/>
<path d="M4446 3667 c3 -10 9 -15 12 -12 3 3 0 11 -7 18 -10 9 -11 8 -5 -6z"/>
<path d="M4834 3658 c-4 -7 -14 -24 -22 -38 -14 -24 -13 -24 3 -5 20 24 37 55
31 55 -3 0 -8 -6 -12 -12z"/>
<path d="M4857 3640 c-3 -11 -1 -23 4 -26 5 -3 9 6 9 20 0 31 -6 34 -13 6z"/>
<path d="M4825 3584 c-9 -15 -12 -23 -6 -20 11 7 35 46 28 46 -3 0 -12 -12
-22 -26z"/>
<path d="M4389 3532 c5 -34 6 -35 9 -8 2 16 0 32 -5 37 -5 5 -7 -7 -4 -29z"/>
<path d="M4028 3543 c6 -2 18 -2 25 0 6 3 1 5 -13 5 -14 0 -19 -2 -12 -5z"/>
<path d="M4222 3520 c0 -19 2 -27 5 -17 2 9 2 25 0 35 -3 9 -5 1 -5 -18z"/>
<path d="M3988 3533 c7 -3 16 -2 19 1 4 3 -2 6 -13 5 -11 0 -14 -3 -6 -6z"/>
<path d="M3890 3509 c-36 -10 -71 -16 -77 -14 -7 2 -13 1 -13 -4 0 -4 -10 -13
-22 -19 -22 -11 -21 -11 5 -6 20 5 27 2 27 -9 0 -8 19 -26 43 -41 l42 -27 -37
31 c-21 18 -38 38 -38 46 0 7 19 18 43 24 64 17 107 31 107 36 0 6 -6 4 -80
-17z"/>
<path d="M4634 3468 l-29 -33 33 29 c17 17 32 31 32 33 0 8 -8 1 -36 -29z"/>
<path d="M4365 3457 c-11 -17 -31 -37 -45 -44 l-25 -13 31 0 c33 0 51 -16 77
-65 9 -16 16 -26 17 -22 0 4 -9 25 -20 47 l-20 39 33 4 c24 3 20 4 -16 5 l-49
2 22 36 c27 43 23 54 -5 11z"/>
<path d="M4231 3464 c0 -11 3 -14 6 -6 3 7 2 16 -1 19 -3 4 -6 -2 -5 -13z"/>
<path d="M3720 3450 c-8 -5 -10 -10 -5 -10 6 0 17 5 25 10 8 5 11 10 5 10 -5
0 -17 -5 -25 -10z"/>
<path d="M3900 3376 c0 -2 8 -10 18 -17 15 -13 16 -12 3 4 -13 16 -21 21 -21
13z"/>
<path d="M3608 3303 c7 -3 16 -2 19 1 4 3 -2 6 -13 5 -11 0 -14 -3 -6 -6z"/>
<path d="M3548 3293 c7 -3 16 -2 19 1 4 3 -2 6 -13 5 -11 0 -14 -3 -6 -6z"/>
<path d="M3498 3283 c6 -2 18 -2 25 0 6 3 1 5 -13 5 -14 0 -19 -2 -12 -5z"/>
<path d="M4134 3275 c-18 -14 -18 -14 4 -8 12 3 22 9 22 14 0 12 -3 11 -26 -6z"/>
<path d="M3448 3273 c6 -2 18 -2 25 0 6 3 1 5 -13 5 -14 0 -19 -2 -12 -5z"/>
<path d="M4124 3230 c-3 -2 -29 -7 -57 -11 -33 -4 -18 -5 43 -3 52 2 106 3
119 3 13 1 22 4 18 7 -7 7 -117 11 -123 4z"/>
<path d="M3425 3200 c-2 -4 7 -13 20 -20 14 -7 25 -17 25 -22 0 -4 8 -8 18 -8
14 0 13 4 -7 19 -18 13 -20 20 -10 23 8 3 2 7 -14 10 -15 3 -29 2 -32 -2z"/>
<path d="M3798 3173 c6 -2 18 -2 25 0 6 3 1 5 -13 5 -14 0 -19 -2 -12 -5z"/>
<path d="M3735 3160 c3 -5 21 -10 38 -9 27 0 29 2 12 9 -28 12 -57 12 -50 0z"/>
<path d="M3848 3143 c7 -3 16 -2 19 1 4 3 -2 6 -13 5 -11 0 -14 -3 -6 -6z"/>
<path d="M3908 3133 c7 -3 16 -2 19 1 4 3 -2 6 -13 5 -11 0 -14 -3 -6 -6z"/>
<path d="M4157 3111 c-4 -17 -3 -21 5 -13 5 5 8 16 6 23 -3 8 -7 3 -11 -10z"/>
<path d="M4030 3106 c0 -2 7 -7 16 -10 8 -3 12 -2 9 4 -6 10 -25 14 -25 6z"/>
<path d="M1994 2888 c-1 -24 1 -37 4 -29 4 11 6 11 14 0 7 -10 7 -4 3 16 -4
17 -8 36 -8 43 0 6 -3 12 -6 12 -4 0 -7 -19 -7 -42z"/>
<path d="M2175 2870 c-3 -5 -2 -10 4 -10 5 0 13 5 16 10 3 6 2 10 -4 10 -5 0
-13 -4 -16 -10z"/>
<path d="M2165 2780 c-4 -6 -11 -8 -16 -5 -5 3 -6 -1 -3 -9 8 -21 11 -20 24 4
11 20 6 29 -5 10z"/>
<path d="M2229 2648 c-5 -16 -4 -46 2 -42 4 2 7 13 6 24 -1 17 -5 26 -8 18z"/>
<path d="M3360 2170 c0 -5 5 -10 10 -10 6 0 10 5 10 10 0 6 -4 10 -10 10 -5 0
-10 -4 -10 -10z"/>
<path d="M3030 2090 c0 -8 5 -22 10 -30 9 -13 10 -13 10 0 0 8 -5 22 -10 30
-9 13 -10 13 -10 0z"/>
<path d="M2890 2080 c1 -8 7 -24 15 -34 19 -25 19 -16 0 20 -8 16 -15 22 -15
14z"/>
<path d="M2551 2049 c0 -13 4 -33 9 -44 7 -14 8 -8 3 20 -7 46 -13 59 -12 24z"/>
<path d="M2782 2025 c0 -16 2 -22 5 -12 2 9 2 23 0 30 -3 6 -5 -1 -5 -18z"/>
<path d="M2972 1975 c0 -16 2 -22 5 -12 2 9 2 23 0 30 -3 6 -5 -1 -5 -18z"/>
<path d="M2591 1979 c-1 -8 6 -24 15 -35 15 -19 15 -19 6 1 -5 11 -12 27 -15
35 -5 13 -6 13 -6 -1z"/>
<path d="M2892 1965 c0 -16 2 -22 5 -12 2 9 2 23 0 30 -3 6 -5 -1 -5 -18z"/>
<path d="M2591 1913 c7 -12 15 -20 18 -17 3 2 -3 12 -13 22 -17 16 -18 16 -5
-5z"/>
<path d="M2676 1907 c3 -10 9 -15 12 -12 3 3 0 11 -7 18 -10 9 -11 8 -5 -6z"/>
<path d="M2610 1853 c0 -7 13 -28 30 -46 16 -19 27 -37 24 -40 -3 -3 0 -8 7
-13 8 -4 10 -3 5 4 -4 7 -3 12 1 12 5 0 19 -20 31 -45 12 -25 26 -45 31 -45 5
0 -4 24 -20 53 -33 59 -36 75 -12 56 14 -12 14 -10 -1 14 -20 29 -29 35 -20
13 3 -8 -1 -17 -8 -22 -7 -4 -10 -4 -6 1 10 11 -11 47 -23 39 -6 -3 -17 2 -24
12 -8 11 -15 14 -15 7z"/>
<path d="M2790 1806 c0 -17 5 -38 11 -46 8 -12 9 -9 5 13 -4 15 -2 36 3 46 8
13 6 18 -5 18 -9 0 -14 -11 -14 -31z"/>
<path d="M2833 1823 c-7 -2 -13 -19 -13 -36 0 -35 14 -26 24 16 3 15 5 27 4
26 -2 0 -9 -3 -15 -6z"/>
<path d="M1976 1791 c-3 -4 -10 -21 -16 -37 -11 -27 -10 -27 7 -11 10 9 19 25
20 37 2 21 -2 26 -11 11z"/>
<path d="M2736 1763 c4 -21 10 -47 15 -59 15 -42 -6 -44 -51 -5 -27 23 -51 36
-62 33 -22 -5 -22 -12 -3 -38 10 -14 14 -15 15 -5 0 11 4 10 16 -5 8 -10 13
-14 10 -7 -8 16 55 -16 72 -36 12 -14 13 -14 8 2 -3 9 -1 17 5 17 6 0 13 -9
16 -21 4 -14 8 -17 13 -8 6 8 12 3 22 -16 15 -27 15 -27 17 26 1 34 8 60 19
73 9 11 12 16 5 13 -6 -4 -13 -1 -16 5 -3 7 -9 -7 -13 -32 l-9 -45 -6 45 -6
45 -1 -45 -2 -45 -21 39 c-11 21 -18 40 -15 43 6 6 -21 63 -30 63 -3 0 -2 -17
2 -37z"/>
<path d="M2590 1750 c1 -14 7 -36 15 -50 14 -24 14 -24 8 15 -7 46 -23 71 -23
35z"/>
<path d="M2630 1750 c0 -5 5 -10 10 -10 6 0 10 5 10 10 0 6 -4 10 -10 10 -5 0
-10 -4 -10 -10z"/>
<path d="M2842 1650 c0 -14 2 -19 5 -12 2 6 2 18 0 25 -3 6 -5 1 -5 -13z"/>
<path d="M3421 1627 c-13 -21 -12 -21 5 -5 10 10 16 20 13 22 -3 3 -11 -5 -18
-17z"/>
</g>
</svg>
